<svg xmlns="http://www.w3.org/2000/svg" width="53.761" height="42.559" viewBox="0 0 53.761 42.559">
  <path id="Vector" d="M22.636,0C8.488,0,0,11.349,0,17.024s2.829,9.931,8.488,9.931,8.49,1.418,8.49,5.674a9.683,9.683,0,0,0,9.9,9.93c18.393,0,26.88-9.93,26.88-19.86C53.76,5.675,39.61,0,22.636,0ZM19.1,5.675a3.541,3.541,0,1,1-1.355.271A3.541,3.541,0,0,1,19.1,5.675Zm11.316,0a3.541,3.541,0,1,1-2.5,1.041,3.541,3.541,0,0,1,2.5-1.041Zm11.319,5.674a3.54,3.54,0,1,1-1.355.271,3.541,3.541,0,0,1,1.355-.271ZM9.2,14.187a3.541,3.541,0,1,1-2.5,1.04,3.539,3.539,0,0,1,2.5-1.04ZM26.88,28.373a4.249,4.249,0,1,1-1.626.326,4.249,4.249,0,0,1,1.626-.326Z" fill="#1c83e5"/>
</svg>
