<svg xmlns="http://www.w3.org/2000/svg" width="47.946" height="51.495" viewBox="0 0 47.946 51.495">
  <g id="cards" transform="translate(-4.026 -2.253)">
    <path id="Vector" d="M31.392,5.06H3.231A3.226,3.226,0,0,0,0,8.291V47a3.233,3.233,0,0,0,3.231,3.231H31.392A3.233,3.233,0,0,0,34.623,47V8.291A3.226,3.226,0,0,0,31.392,5.06ZM26.018,28.2a25.969,25.969,0,0,1-8.142,7.689,1.075,1.075,0,0,1-.571.172,1.135,1.135,0,0,1-.571-.172A26.121,26.121,0,0,1,8.572,28.16a5.691,5.691,0,0,1-.958-3.177,5.76,5.76,0,0,1,9.692-4.211A5.763,5.763,0,0,1,26.018,28.2ZM20.031,2.314A3.253,3.253,0,0,0,16.014.128L6.593,2.906H20.205l-.174-.592Z" transform="translate(17.349 2.253)" fill="#1c83e5"/>
    <path id="Vector-2" data-name="Vector" d="M11.169,41.8V3.1a5.342,5.342,0,0,1,1-3.1L2.317,2.9A3.241,3.241,0,0,0,.131,6.92L11.083,44.042A3.274,3.274,0,0,0,13.612,46.3a5.378,5.378,0,0,1-2.442-4.5Z" transform="translate(4.026 7.447)" fill="#1c83e5"/>
  </g>
</svg>
