<svg xmlns="http://www.w3.org/2000/svg" width="16.01" height="18.985" viewBox="0 0 16.01 18.985">
  <path id="Vector" d="M5.985,2h4a.945.945,0,0,0,1-1,.945.945,0,0,0-1-1h-4a.945.945,0,0,0-1,1A.945.945,0,0,0,5.985,2Zm8.3,4.1.9-.9a.99.99,0,0,0-1.4-1.4l-.9.9a7.822,7.822,0,0,0-9.8,0l-.9-.9a.967.967,0,0,0-1.4,0,.967.967,0,0,0,0,1.4l.9.9a7.981,7.981,0,0,0,12.6,9.8A7.822,7.822,0,0,0,14.285,6.1ZM9.685,12a2.062,2.062,0,0,1-1.7,1,2.006,2.006,0,0,1-2-2,1.936,1.936,0,0,1,1-1.7V7a.945.945,0,0,1,1-1,.945.945,0,0,1,1,1V9.3A1.862,1.862,0,0,1,9.685,12Z" fill="#1c83e5"/>
</svg>
