<svg xmlns="http://www.w3.org/2000/svg" width="52.636" height="47.467" viewBox="0 0 52.636 47.467">
  <g id="Toy" transform="translate(-1.718 -4.037)">
    <path id="Vector" d="M8.074,35.6A89.38,89.38,0,0,1,8.9,26.114a21.5,21.5,0,0,1,1.46-5.645H6.834a2.6,2.6,0,1,1,0-5.193H28.652l-.013-.116C27.567,6.569,33.393,1.518,38.147.445s13.189,0,14.107,1.021a1.214,1.214,0,0,1-.1,1.834,15.185,15.185,0,0,0-3.062.969c-.413.362,2.2,8.862,1.641,10.218-1.021,2.454-4.289,2.248-5.258-.413s-4.392-3.062-5.064-.052a8.326,8.326,0,0,0,.866,5.413c.168.245,1.331,2.015,2,6.653a88.485,88.485,0,0,1,.827,9.469c1.77-1.718,3.217-5.309,4.986-5.258,3.436.1,2.222,3.992.982,5.568a30.26,30.26,0,0,1-23.847,11.6H25.63A30.282,30.282,0,0,1,.388,33.942L.4,33.929a2.393,2.393,0,0,1-.4-1.3,2.327,2.327,0,0,1,4.405-1.059A18.677,18.677,0,0,0,8.1,35.557Zm31.985,3.178a16.587,16.587,0,0,0-3.85-7.583c-2.325-2.739-8.823-3.152-10.128-3.2-1.3.052-7.8.465-10.128,3.2a16.47,16.47,0,0,0-3.888,7.79,25.549,25.549,0,0,0,13.525,3.863h.039V42.83h.517v.013h.039a25.487,25.487,0,0,0,13.848-4.056Z" transform="translate(1.718 4.037)" fill="#1c83e5"/>
  </g>
</svg>
