<svg xmlns="http://www.w3.org/2000/svg" width="55.999" height="39.299" viewBox="0 0 55.999 39.299">
  <g id="Game" transform="translate(0 -8.35)">
    <path id="Vector" d="M54.443,17.861C51.973,4.068,46.452,0,43.514,0,38.931,0,37.755,3.408,28,3.522,18.244,3.408,17.068,0,12.485,0,9.548,0,4.023,4.068,1.554,17.861.145,25.735-1.384,37.489,2.259,38.9c4.533,1.756,6.07-2.635,11.049-6.345C18.362,28.8,20.787,27.91,28,27.91s9.638.885,14.692,4.645c4.978,3.707,6.516,8.1,11.049,6.345,3.643-1.411,2.114-13.163.7-21.039ZM16.8,19.65a5.6,5.6,0,1,1,3.96-1.64A5.6,5.6,0,0,1,16.8,19.65Zm19.6,0a2.8,2.8,0,1,1,1.98-.82A2.8,2.8,0,0,1,36.4,19.65Zm5.6-5.6a2.8,2.8,0,1,1,1.98-.82A2.8,2.8,0,0,1,42,14.05Z" transform="translate(0 8.35)" fill="#1c83e5"/>
  </g>
</svg>
