<svg xmlns="http://www.w3.org/2000/svg" width="33.333" height="33.333" viewBox="0 0 33.333 33.333">
  <path id="Vector" d="M25.567,5.767a2,2,0,1,0,1.414.586,2,2,0,0,0-1.414-.586ZM33.233,9.8a12.65,12.65,0,0,0-.767-4.05A8.233,8.233,0,0,0,30.533,2.8,7.833,7.833,0,0,0,27.583.883,12.167,12.167,0,0,0,23.533.1C21.767,0,21.2,0,16.667,0S11.567,0,9.8.1A12.167,12.167,0,0,0,5.75.883,7.967,7.967,0,0,0,2.8,2.8,7.833,7.833,0,0,0,.883,5.75,12.167,12.167,0,0,0,.1,9.8C0,11.567,0,12.133,0,16.667s0,5.1.1,6.867a12.167,12.167,0,0,0,.783,4.05A7.833,7.833,0,0,0,2.8,30.533,7.967,7.967,0,0,0,5.75,32.45a12.167,12.167,0,0,0,4.05.783c1.767.1,2.333.1,6.867.1s5.1,0,6.867-.1a12.167,12.167,0,0,0,4.05-.783,7.833,7.833,0,0,0,2.95-1.917,8.083,8.083,0,0,0,1.933-2.95,12.65,12.65,0,0,0,.767-4.05c0-1.767.1-2.333.1-6.867s0-5.1-.1-6.867Zm-3,13.533a9.35,9.35,0,0,1-.567,3.1,5.1,5.1,0,0,1-1.25,1.917A5.317,5.317,0,0,1,26.5,29.6a9.35,9.35,0,0,1-3.1.567c-1.667.083-2.283.1-6.667.1s-5,0-6.667-.1a9.55,9.55,0,0,1-3.233-.5A5.45,5.45,0,0,1,5,28.417,5,5,0,0,1,3.767,26.5,9.233,9.233,0,0,1,3.1,23.333c0-1.667-.1-2.283-.1-6.667s0-5,.1-6.667a9.233,9.233,0,0,1,.583-3.167A5,5,0,0,1,5,5,5.233,5.233,0,0,1,6.833,3.667,9.55,9.55,0,0,1,10,3.1c1.667,0,2.283-.1,6.667-.1s5,0,6.667.1a9.35,9.35,0,0,1,3.1.567A5.1,5.1,0,0,1,28.417,5a5.1,5.1,0,0,1,1.25,1.833A9.35,9.35,0,0,1,30.233,10c.083,1.667.1,2.283.1,6.667S30.317,21.667,30.233,23.333ZM16.667,8.117a8.533,8.533,0,1,0,3.28.642,8.55,8.55,0,0,0-3.28-.642Zm0,14.1a5.55,5.55,0,1,1,2.124-.422,5.55,5.55,0,0,1-2.124.422Z" fill="#fcfcfc"/>
</svg>

