<svg xmlns="http://www.w3.org/2000/svg" width="56" height="56" viewBox="0 0 56 56">
  <path id="Vector" d="M6.991,0A7.022,7.022,0,0,0,0,6.991V18.655a7.041,7.041,0,0,0,6.991,7.014H18.673a7.041,7.041,0,0,0,6.991-7.014V6.991A7.022,7.022,0,0,0,18.673,0ZM37.327,0a7.022,7.022,0,0,0-6.991,6.991V18.655a7.041,7.041,0,0,0,6.991,7.014H49.009A7.041,7.041,0,0,0,56,18.655V6.991A7.022,7.022,0,0,0,49.009,0ZM6.991,30.336A7.022,7.022,0,0,0,0,37.327V49.009A7.022,7.022,0,0,0,6.991,56H18.673a7.022,7.022,0,0,0,6.991-6.991V37.327a7.022,7.022,0,0,0-6.991-6.991Zm30.336,0a7.022,7.022,0,0,0-6.991,6.991V49.009A7.022,7.022,0,0,0,37.327,56H49.009A7.022,7.022,0,0,0,56,49.009V37.327a7.022,7.022,0,0,0-6.991-6.991Z" fill="#1c83e5"/>
</svg>
