<svg xmlns="http://www.w3.org/2000/svg" width="36.666" height="33.49" viewBox="0 0 36.666 33.49">
  <path id="Vector" d="M35.441.789a3.414,3.414,0,0,0-3.464-.54L2.109,12.308a3.405,3.405,0,0,0,.174,6.364l6.042,2.1,3.367,11.136a1.663,1.663,0,0,0,.2.421c.013.02.031.035.045.054a1.647,1.647,0,0,0,.352.36c.038.029.075.057.116.083a1.643,1.643,0,0,0,.518.227l.02,0,.011,0a1.7,1.7,0,0,0,.337.034c.011,0,.021-.005.031-.005a1.654,1.654,0,0,0,.5-.087c.038-.013.07-.034.106-.05a1.655,1.655,0,0,0,.34-.191l.254-.214,4.5-4.972,6.717,5.2a3.372,3.372,0,0,0,2.069.711,3.424,3.424,0,0,0,3.346-2.721L36.6,4.074A3.383,3.383,0,0,0,35.441.789ZM13.95,21.3a1.656,1.656,0,0,0-.454.843l-.516,2.507-1.307-4.322L18.449,16.8Zm13.836,8.839-7.938-6.149a1.669,1.669,0,0,0-2.256.2L16.15,25.785l.51-2.477L28.465,11.5a1.666,1.666,0,0,0-1.948-2.656L9.575,17.667,3.368,15.4,33.332,3.408Z" fill="#fcfcfc"/>
</svg>
