<svg xmlns="http://www.w3.org/2000/svg" width="30.094" height="26.684" viewBox="0 0 30.094 26.684">
  <path id="Vector" d="M9.205,26.669H9.072a18.117,18.117,0,0,1-7.75-1.817,2.3,2.3,0,0,1-1.3-2.4,2.35,2.35,0,0,1,1.933-1.967A11.05,11.05,0,0,0,6.189,19,15.817,15.817,0,0,1,.339,3.886,2.35,2.35,0,0,1,2.005,1.969a2.25,2.25,0,0,1,2.383.683A11.817,11.817,0,0,0,7.984,5.781a11.817,11.817,0,0,0,4.538,1.454,7.5,7.5,0,0,1,2.35-5.167,7.45,7.45,0,0,1,10.617.317,1.167,1.167,0,0,0,1.3.167,2.317,2.317,0,0,1,3.233,2.667,11.1,11.1,0,0,1-2.133,4.333A17.983,17.983,0,0,1,9.205,26.669Zm0-3.333h.133A14.65,14.65,0,0,0,24.489,9.019,2.2,2.2,0,0,1,25.105,7.6a8.65,8.65,0,0,0,1.033-1.667,4.267,4.267,0,0,1-3.183-1.417,4.083,4.083,0,0,0-2.933-1.183,4.167,4.167,0,0,0-2.983,1.15,4.217,4.217,0,0,0-1.2,4.033l.433,1.9-1.95.133a13.833,13.833,0,0,1-5.89-.8,13.833,13.833,0,0,1-5.01-3.2A11.867,11.867,0,0,0,9.639,17.319l1.583.9-1.05,1.5a9.367,9.367,0,0,1-4.467,3.2,13.9,13.9,0,0,0,3.483.417Z" fill="#fcfcfc"/>
</svg>
