<svg xmlns="http://www.w3.org/2000/svg" width="38" height="42.5" viewBox="0 0 38 42.5">
  <g id="Nft" transform="translate(-5 -2.75)">
    <path id="Vector" d="M36,10.125,18,0,0,10.125v20.25L18,40.5,36,30.375Z" transform="translate(6 3.75)" fill="#1c83e5" stroke="#fcfcfc" stroke-linejoin="round" stroke-width="2"/>
    <path id="Vector-2" data-name="Vector" d="M0,25.432V8.516L15.139,0,30.279,8.516V25.432L15.139,33.948Z" transform="translate(8.861 7.026)" fill="#fcfcfc" stroke="#fcfcfc" stroke-linejoin="round" stroke-width="2"/>
    <path id="Vector-3" data-name="Vector" d="M0,17.071V3.752l4.812,15.8V0" transform="translate(11.164 14.159)" fill="none" stroke="#1c83e5" stroke-linecap="round" stroke-linejoin="round" stroke-width="1.5"/>
    <path id="Vector-4" data-name="Vector" d="M0,26.323V2.413L4.159,0,9.317,3" transform="translate(19.972 9.782)" fill="none" stroke="#1c83e5" stroke-linecap="round" stroke-linejoin="round" stroke-width="1.5"/>
    <path id="Vector-5" data-name="Vector" d="M0,0,5.475,3.188" transform="translate(31.65 14.159)" fill="none" stroke="#1c83e5" stroke-linecap="round" stroke-linejoin="round" stroke-width="1.5"/>
    <path id="Vector-6" data-name="Vector" d="M0,0H7.1" transform="translate(19.972 23.726)" fill="none" stroke="#1c83e5" stroke-linecap="round" stroke-linejoin="round" stroke-width="1.5"/>
    <path id="Vector-7" data-name="Vector" d="M0,0V16.864" transform="translate(34.387 15.753)" fill="none" stroke="#1c83e5" stroke-linecap="round" stroke-linejoin="round" stroke-width="1.5"/>
  </g>
</svg>
