<svg xmlns="http://www.w3.org/2000/svg" width="36.5" height="43.013" viewBox="0 0 36.5 43.013">
  <g id="Nft_Open_Cardboard" data-name="Nft Open Cardboard" transform="translate(-5.75 -2.368)">
    <path id="Vector" d="M0,0V1.109" transform="translate(9.317 14.114)" fill="none" stroke="#fcfcfc" stroke-linecap="round" stroke-linejoin="round" stroke-width="2"/>
    <path id="Vector-2" data-name="Vector" d="M0,0H1.142" transform="translate(6.75 16.636)" fill="none" stroke="#fcfcfc" stroke-linecap="round" stroke-linejoin="round" stroke-width="2"/>
    <path id="Vector-3" data-name="Vector" d="M0,1.109V0" transform="translate(9.347 18.021)" fill="none" stroke="#fcfcfc" stroke-linecap="round" stroke-linejoin="round" stroke-width="2"/>
    <path id="Vector-4" data-name="Vector" d="M1.141,0H0" transform="translate(10.772 16.608)" fill="none" stroke="#fcfcfc" stroke-linecap="round" stroke-linejoin="round" stroke-width="2"/>
    <path id="Vector-5" data-name="Vector" d="M0,0V1.108" transform="translate(36.026 3.368)" fill="none" stroke="#fcfcfc" stroke-linecap="round" stroke-linejoin="round" stroke-width="2"/>
    <path id="Vector-6" data-name="Vector" d="M0,0H1.141" transform="translate(33.459 5.89)" fill="none" stroke="#fcfcfc" stroke-linecap="round" stroke-linejoin="round" stroke-width="2"/>
    <path id="Vector-7" data-name="Vector" d="M0,1.109V0" transform="translate(36.056 7.275)" fill="none" stroke="#fcfcfc" stroke-linecap="round" stroke-linejoin="round" stroke-width="2"/>
    <path id="Vector-8" data-name="Vector" d="M1.142,0H0" transform="translate(37.481 5.862)" fill="none" stroke="#fcfcfc" stroke-linecap="round" stroke-linejoin="round" stroke-width="2"/>
    <path id="Vector-9" data-name="Vector" d="M0,0V1.109" transform="translate(38.653 16.067)" fill="none" stroke="#fcfcfc" stroke-linecap="round" stroke-linejoin="round" stroke-width="2"/>
    <path id="Vector-10" data-name="Vector" d="M0,0H1.142" transform="translate(36.086 18.59)" fill="none" stroke="#fcfcfc" stroke-linecap="round" stroke-linejoin="round" stroke-width="2"/>
    <path id="Vector-11" data-name="Vector" d="M0,1.109V0" transform="translate(38.683 19.974)" fill="none" stroke="#fcfcfc" stroke-linecap="round" stroke-linejoin="round" stroke-width="2"/>
    <path id="Vector-12" data-name="Vector" d="M1.141,0H0" transform="translate(40.109 18.561)" fill="none" stroke="#fcfcfc" stroke-linecap="round" stroke-linejoin="round" stroke-width="2"/>
    <g id="Group">
      <path id="Vector-13" data-name="Vector" d="M11.9,0,0,4.349,11.9,8.909,23.8,4.349Z" transform="translate(12.019 18.703)" fill="#fcfcfc" stroke="#fcfcfc" stroke-linejoin="round" stroke-width="2"/>
      <path id="Vector-14" data-name="Vector" d="M0,0V16.255l11.9,4.562V4.561Z" transform="translate(12.019 23.052)" fill="#fcfcfc" stroke="#fcfcfc" stroke-linejoin="round" stroke-width="2"/>
      <path id="Vector-15" data-name="Vector" d="M11.9,0V16.255L0,20.816V4.561Z" transform="translate(23.921 23.052)" fill="#fcfcfc" stroke="#fcfcfc" stroke-linejoin="round" stroke-width="2"/>
      <path id="Vector-16" data-name="Vector" d="M2.2,0,0,5.809l12.03,4.43L14.1,4.561Z" transform="translate(9.817 23.052)" fill="#1c83e5" stroke="#fcfcfc" stroke-linejoin="round" stroke-width="2"/>
      <path id="Vector-17" data-name="Vector" d="M11.9,0l2.2,5.809-12.03,4.43L0,4.561Z" transform="translate(23.921 23.052)" fill="#1c83e5" stroke="#fcfcfc" stroke-linejoin="round" stroke-width="2"/>
      <path id="Vector-18" data-name="Vector" d="M0,0V16.46" transform="translate(23.921 28.172)" fill="none" stroke="#1c83e5" stroke-linecap="round" stroke-linejoin="round" stroke-width="1.5"/>
    </g>
    <g id="Group-2" data-name="Group">
      <path id="Vector-19" data-name="Vector" d="M0,12.557V4.2L7.315,0l7.315,4.2v8.352l-7.315,4.2Z" transform="translate(16.606 4.91)" fill="#1c83e5" stroke="#fcfcfc" stroke-linejoin="round" stroke-width="2"/>
      <path id="Vector-20" data-name="Vector" d="M0,0V3.141" transform="translate(19.925 11.72)" fill="none" stroke="#fcfcfc" stroke-linecap="round" stroke-linejoin="round" stroke-width="2"/>
      <path id="Vector-21" data-name="Vector" d="M0,0V8.212" transform="translate(23.732 9.184)" fill="none" stroke="#fcfcfc" stroke-linecap="round" stroke-linejoin="round" stroke-width="2"/>
      <path id="Vector-22" data-name="Vector" d="M0,0V3.141" transform="translate(27.54 11.72)" fill="none" stroke="#fcfcfc" stroke-linecap="round" stroke-linejoin="round" stroke-width="2"/>
    </g>
  </g>
</svg>
