<svg xmlns="http://www.w3.org/2000/svg" width="1399" height="124" viewBox="0 0 1399 124">
  <g id="list" transform="translate(-160 -5829)">
    <path id="FREEZE_DIGITAL_GROUP" data-name="FREEZE DIGITAL GROUP" d="M16.473.438q-.126,1.344-.189,2.594-.031,1.25-.031,1.906,0,.719.031,1.344t.063,1.094h-.724a14.571,14.571,0,0,0-.945-3.687A3.884,3.884,0,0,0,13.071,1.75a5.247,5.247,0,0,0-2.677-.594H9.04a5.157,5.157,0,0,0-1.449.156,1.035,1.035,0,0,0-.693.656A5.487,5.487,0,0,0,6.74,3.5V19.125a4.793,4.793,0,0,0,.252,1.781,1.351,1.351,0,0,0,.976.781,9.69,9.69,0,0,0,2.079.219v.656Q9.134,22.5,7.685,22.5q-1.449-.031-2.992-.031-1.323,0-2.551.031Q.913,22.5,0,22.563v-.625a5.721,5.721,0,0,0,1.543-.25,1.046,1.046,0,0,0,.693-.75,5.646,5.646,0,0,0,.189-1.687V3.75a5.461,5.461,0,0,0-.189-1.687,1.046,1.046,0,0,0-.693-.75A4.436,4.436,0,0,0,0,1.063V.438L2.646.5Q4.063.5,5.418.531h7.748Q15.024.5,16.473.438ZM11.717,11.313v.625H5.8v-.625Zm.724-4.125q-.126,1.781-.126,2.719.031.938.031,1.719t.031,1.719q.031.938.157,2.719h-.724a8.706,8.706,0,0,0-.472-2,3.282,3.282,0,0,0-1.071-1.531,3.017,3.017,0,0,0-2.016-.594v-.625a2.913,2.913,0,0,0,1.606-.406,2.875,2.875,0,0,0,.976-1.031A5.732,5.732,0,0,0,11.4,8.531a9.4,9.4,0,0,0,.315-1.344Z" transform="translate(160 5833)" fill="#838383"/>
    <path id="FREEZE_DIGITAL_GROUP-2" data-name="FREEZE DIGITAL GROUP" d="M18.425.438Q19.212.469,20.44.5T22.9.531q1.543,0,2.929-.031T27.779.469a13.4,13.4,0,0,1,4.662.687,5.723,5.723,0,0,1,2.772,1.875,4.659,4.659,0,0,1,.913,2.875,6.043,6.043,0,0,1-.409,2.125A5.161,5.161,0,0,1,34.3,10a7.854,7.854,0,0,1-2.772,1.5,14.658,14.658,0,0,1-4.441.563H24.063v-.625h2.709A5.493,5.493,0,0,0,29.8,10.75a3.386,3.386,0,0,0,1.417-1.875A8.623,8.623,0,0,0,31.59,6.25a6.405,6.405,0,0,0-.976-3.813,3.851,3.851,0,0,0-3.37-1.375,2.089,2.089,0,0,0-1.7.531,4.12,4.12,0,0,0-.378,2.156v15.5a5.646,5.646,0,0,0,.189,1.688,1.133,1.133,0,0,0,.693.75,6.044,6.044,0,0,0,1.543.25v.625Q26.8,22.5,25.574,22.5q-1.228-.031-2.488-.031-1.417,0-2.646.031-1.228,0-2.016.063v-.625a5.721,5.721,0,0,0,1.543-.25,1.046,1.046,0,0,0,.693-.75,5.646,5.646,0,0,0,.189-1.687V3.75a5.461,5.461,0,0,0-.189-1.687,1.046,1.046,0,0,0-.693-.75,4.436,4.436,0,0,0-1.543-.25Zm5.638,11.094q1.48.063,2.457.156,1.008.063,1.7.125.724.062,1.291.156a7.365,7.365,0,0,1,3.843,1.219,4.6,4.6,0,0,1,1.669,2.875l.724,3.219a7.268,7.268,0,0,0,.6,1.844,1.034,1.034,0,0,0,.976.5,1.292,1.292,0,0,0,.756-.219,3.823,3.823,0,0,0,.63-.656l.441.375a5.545,5.545,0,0,1-1.669,1.438A5.023,5.023,0,0,1,35.244,23a4.524,4.524,0,0,1-2.551-.687,4.034,4.034,0,0,1-1.417-2.687l-.6-3.125a16.768,16.768,0,0,0-.6-2.312,3.74,3.74,0,0,0-.882-1.562,2.274,2.274,0,0,0-1.669-.562h-3.4Z" transform="translate(160 5833)" fill="#838383"/>
    <path id="FREEZE_DIGITAL_GROUP-3" data-name="FREEZE DIGITAL GROUP" d="M56.214.438q-.126,1.281-.189,2.5-.031,1.187-.031,1.812,0,.594.031,1.156.031.531.063.906h-.724a11.342,11.342,0,0,0-.819-3.375A3.477,3.477,0,0,0,53,1.688a5.061,5.061,0,0,0-2.488-.531H48.78a5.157,5.157,0,0,0-1.449.156,1.035,1.035,0,0,0-.693.656A5.487,5.487,0,0,0,46.481,3.5v16a5.693,5.693,0,0,0,.157,1.531,1.035,1.035,0,0,0,.693.656,5.157,5.157,0,0,0,1.449.156h1.8a5.466,5.466,0,0,0,2.677-.594,4.225,4.225,0,0,0,1.764-1.937,12.7,12.7,0,0,0,.976-3.75h.724q-.094.969-.094,2.5,0,.656.032,1.906.063,1.25.189,2.594-1.606-.062-3.622-.062-2.016-.031-3.591-.031H47.709q-1.165,0-2.551.031-1.354,0-2.772.031-1.386,0-2.646.031v-.625a5.721,5.721,0,0,0,1.543-.25,1.046,1.046,0,0,0,.693-.75,5.646,5.646,0,0,0,.189-1.687V3.75a5.461,5.461,0,0,0-.189-1.687,1.046,1.046,0,0,0-.693-.75,4.436,4.436,0,0,0-1.543-.25V.438L42.386.5Q43.8.5,45.158.531h7.748Q54.765.5,56.214.438ZM51.143,11.125v.625H45.536v-.625ZM52.056,7q-.126,1.781-.126,2.719.031.938.032,1.719t.031,1.719q.031.938.157,2.719h-.724a9.972,9.972,0,0,0-.5-2,3.089,3.089,0,0,0-1.039-1.531,3.017,3.017,0,0,0-2.016-.594v-.625a2.755,2.755,0,0,0,1.575-.406A3.163,3.163,0,0,0,50.45,9.688a5.732,5.732,0,0,0,.567-1.344A9.4,9.4,0,0,0,51.332,7Z" transform="translate(160 5833)" fill="#838383"/>
    <path id="FREEZE_DIGITAL_GROUP-4" data-name="FREEZE DIGITAL GROUP" d="M75.9.438q-.126,1.281-.189,2.5-.032,1.187-.031,1.812,0,.594.031,1.156.031.531.063.906h-.724a11.342,11.342,0,0,0-.819-3.375,3.477,3.477,0,0,0-1.543-1.75A5.061,5.061,0,0,0,70.2,1.156H68.466a5.157,5.157,0,0,0-1.449.156,1.035,1.035,0,0,0-.693.656A5.487,5.487,0,0,0,66.167,3.5v16a5.693,5.693,0,0,0,.157,1.531,1.035,1.035,0,0,0,.693.656,5.157,5.157,0,0,0,1.449.156h1.8a5.466,5.466,0,0,0,2.677-.594A4.225,4.225,0,0,0,74.7,19.313a12.7,12.7,0,0,0,.976-3.75H76.4q-.094.969-.094,2.5,0,.656.032,1.906.063,1.25.189,2.594-1.606-.062-3.622-.062-2.016-.031-3.591-.031H67.4q-1.165,0-2.551.031-1.354,0-2.772.031-1.386,0-2.646.031v-.625a5.721,5.721,0,0,0,1.543-.25,1.046,1.046,0,0,0,.693-.75,5.646,5.646,0,0,0,.189-1.687V3.75a5.461,5.461,0,0,0-.189-1.687,1.046,1.046,0,0,0-.693-.75,4.436,4.436,0,0,0-1.543-.25V.438L62.072.5q1.417,0,2.772.031h7.748Q74.45.5,75.9.438ZM70.828,11.125v.625H65.222v-.625ZM71.742,7q-.126,1.781-.126,2.719.032.938.032,1.719t.031,1.719q.031.938.157,2.719h-.724a9.972,9.972,0,0,0-.5-2,3.089,3.089,0,0,0-1.039-1.531,3.017,3.017,0,0,0-2.016-.594v-.625a2.755,2.755,0,0,0,1.575-.406,3.163,3.163,0,0,0,1.008-1.031A5.732,5.732,0,0,0,70.7,8.344,9.4,9.4,0,0,0,71.017,7Z" transform="translate(160 5833)" fill="#838383"/>
    <path id="FREEZE_DIGITAL_GROUP-5" data-name="FREEZE DIGITAL GROUP" d="M95.428.438v.625L84.089,21.844h4.221a6.9,6.9,0,0,0,2.236-.344A5.322,5.322,0,0,0,92.4,20.438a5.712,5.712,0,0,0,1.354-2,10.011,10.011,0,0,0,.693-3.062h.724q-.094,1.031-.094,2.688,0,.656.032,1.906.063,1.25.189,2.594Q94.136,22.5,92.75,22.5q-1.386-.031-2.772-.031h-2.52q-1.953,0-4.126.031-2.173,0-4.095.063v-.625L90.64,1.156H86.325a7.645,7.645,0,0,0-2.268.313A4.427,4.427,0,0,0,82.293,2.5a5.146,5.146,0,0,0-1.2,1.906A12.176,12.176,0,0,0,80.4,7.375h-.724a8.319,8.319,0,0,0,.063-1.094q.031-.625.031-1.344,0-.656-.063-1.906-.031-1.25-.157-2.594,1.1.031,2.394.062T84.53.531h6.677Q93.475.5,95.428.438Z" transform="translate(160 5833)" fill="#838383"/>
    <path id="FREEZE_DIGITAL_GROUP-6" data-name="FREEZE DIGITAL GROUP" d="M114.44.438q-.126,1.281-.189,2.5-.031,1.187-.031,1.812,0,.594.031,1.156.032.531.063.906h-.724a11.342,11.342,0,0,0-.819-3.375,3.477,3.477,0,0,0-1.543-1.75,5.061,5.061,0,0,0-2.488-.531h-1.732a5.157,5.157,0,0,0-1.449.156,1.035,1.035,0,0,0-.693.656,5.487,5.487,0,0,0-.157,1.531v16a5.693,5.693,0,0,0,.157,1.531,1.035,1.035,0,0,0,.693.656,5.157,5.157,0,0,0,1.449.156h1.8a5.466,5.466,0,0,0,2.677-.594,4.225,4.225,0,0,0,1.764-1.937,12.7,12.7,0,0,0,.976-3.75h.724q-.094.969-.094,2.5,0,.656.031,1.906.063,1.25.189,2.594-1.606-.062-3.622-.062-2.016-.031-3.591-.031h-1.921q-1.165,0-2.551.031-1.354,0-2.772.031-1.386,0-2.646.031v-.625a5.721,5.721,0,0,0,1.543-.25,1.046,1.046,0,0,0,.693-.75,5.646,5.646,0,0,0,.189-1.687V3.75a5.461,5.461,0,0,0-.189-1.687,1.046,1.046,0,0,0-.693-.75,4.436,4.436,0,0,0-1.543-.25V.438L100.613.5q1.417,0,2.772.031h7.748Q112.991.5,114.44.438Zm-5.071,10.687v.625h-5.606v-.625ZM110.283,7q-.126,1.781-.126,2.719.031.938.032,1.719t.031,1.719q.031.938.157,2.719h-.724a9.972,9.972,0,0,0-.5-2,3.089,3.089,0,0,0-1.039-1.531,3.017,3.017,0,0,0-2.016-.594v-.625a2.755,2.755,0,0,0,1.575-.406,3.163,3.163,0,0,0,1.008-1.031,5.732,5.732,0,0,0,.567-1.344A9.4,9.4,0,0,0,109.558,7Z" transform="translate(160 5833)" fill="#838383"/>
    <path id="FREEZE_DIGITAL_GROUP-7" data-name="FREEZE DIGITAL GROUP" d="M134.544.438q6.047,0,8.945,2.812,2.929,2.781,2.929,8a11.921,11.921,0,0,1-1.449,5.969,9.748,9.748,0,0,1-4.126,3.938,14.145,14.145,0,0,1-6.583,1.406q-.472,0-1.291-.031-.787-.031-1.669-.031-.85-.031-1.575-.031-1.291,0-2.52.031-1.228,0-2.016.063v-.625a5.721,5.721,0,0,0,1.543-.25,1.046,1.046,0,0,0,.693-.75,5.646,5.646,0,0,0,.189-1.687V3.75a5.461,5.461,0,0,0-.189-1.687,1.046,1.046,0,0,0-.693-.75,4.436,4.436,0,0,0-1.543-.25V.438q.787.031,2.016.094,1.228.031,2.457,0Q130.8.5,132.213.469T134.544.438ZM134.26,1a2.455,2.455,0,0,0-1.89.531,3.624,3.624,0,0,0-.441,2.156V19.313a3.624,3.624,0,0,0,.441,2.156,2.574,2.574,0,0,0,1.921.531,7.516,7.516,0,0,0,4.567-1.219,6.546,6.546,0,0,0,2.331-3.625,20.875,20.875,0,0,0,.693-5.781,18.674,18.674,0,0,0-.756-5.781,6.2,6.2,0,0,0-2.394-3.437A7.724,7.724,0,0,0,134.26,1Z" transform="translate(160 5833)" fill="#838383"/>
    <path id="FREEZE_DIGITAL_GROUP-8" data-name="FREEZE DIGITAL GROUP" d="M157.947.438v.625a4.632,4.632,0,0,0-1.543.25,1.133,1.133,0,0,0-.693.75,5.461,5.461,0,0,0-.189,1.687v15.5a5.646,5.646,0,0,0,.189,1.688,1.133,1.133,0,0,0,.693.75,6.044,6.044,0,0,0,1.543.25v.625q-.787-.062-2.016-.062-1.228-.031-2.488-.031-1.417,0-2.646.031-1.228,0-2.016.063v-.625a5.721,5.721,0,0,0,1.543-.25,1.046,1.046,0,0,0,.693-.75,5.646,5.646,0,0,0,.189-1.687V3.75a5.461,5.461,0,0,0-.189-1.687,1.046,1.046,0,0,0-.693-.75,4.436,4.436,0,0,0-1.543-.25V.438q.787.031,2.016.062t2.646.031q1.26,0,2.488-.031T157.947.438Z" transform="translate(160 5833)" fill="#838383"/>
    <path id="FREEZE_DIGITAL_GROUP-9" data-name="FREEZE DIGITAL GROUP" d="M171.316,0a8.078,8.078,0,0,1,3.433.625,13.141,13.141,0,0,1,2.425,1.406,1.1,1.1,0,0,0,.63.312q.6,0,.787-1.906h.724q-.063,1.187-.094,2.906t-.032,4.531h-.724a18.783,18.783,0,0,0-.63-3.031,4.862,4.862,0,0,0-1.48-2.281,5.345,5.345,0,0,0-2.079-1.344,6.549,6.549,0,0,0-2.488-.5,5.007,5.007,0,0,0-2.929.875,6.912,6.912,0,0,0-2.079,2.344,12.074,12.074,0,0,0-1.228,3.437,20.083,20.083,0,0,0-.409,4.156q0,5.625,1.638,8.25a5.445,5.445,0,0,0,4.882,2.594,4.628,4.628,0,0,0,1.512-.219,6.5,6.5,0,0,0,1.071-.5,1.743,1.743,0,0,0,.661-.719,2.431,2.431,0,0,0,.157-.937V16.938a6.06,6.06,0,0,0-.252-2.031,1.5,1.5,0,0,0-.945-.937,6.374,6.374,0,0,0-1.984-.281v-.625q.63.031,1.48.063.882,0,1.827.031h1.764q1.228,0,2.236-.031t1.669-.062v.625a2.328,2.328,0,0,0-.976.219,1.01,1.01,0,0,0-.409.75,11.349,11.349,0,0,0-.094,1.719v6.188h-.63a4.259,4.259,0,0,0-.252-1.156q-.22-.625-.661-.625a1.273,1.273,0,0,0-.5.125,7.3,7.3,0,0,0-.976.469,11.921,11.921,0,0,1-2.362,1.188,8.025,8.025,0,0,1-2.709.438,12.559,12.559,0,0,1-5.984-1.312,8.842,8.842,0,0,1-3.685-3.844,13.4,13.4,0,0,1-1.26-6.031,13.09,13.09,0,0,1,1.417-6.25,10.17,10.17,0,0,1,3.874-4.094A10.941,10.941,0,0,1,171.316,0Z" transform="translate(160 5833)" fill="#838383"/>
    <path id="FREEZE_DIGITAL_GROUP-10" data-name="FREEZE DIGITAL GROUP" d="M191.966.438v.625a4.632,4.632,0,0,0-1.543.25,1.133,1.133,0,0,0-.693.75,5.461,5.461,0,0,0-.189,1.687v15.5a5.646,5.646,0,0,0,.189,1.688,1.133,1.133,0,0,0,.693.75,6.044,6.044,0,0,0,1.543.25v.625q-.787-.062-2.016-.062-1.228-.031-2.488-.031-1.417,0-2.646.031-1.228,0-2.016.063v-.625a5.721,5.721,0,0,0,1.543-.25,1.046,1.046,0,0,0,.693-.75,5.646,5.646,0,0,0,.189-1.687V3.75a5.461,5.461,0,0,0-.189-1.687,1.046,1.046,0,0,0-.693-.75,4.436,4.436,0,0,0-1.543-.25V.438q.787.031,2.016.062t2.646.031q1.26,0,2.488-.031T191.966.438Z" transform="translate(160 5833)" fill="#838383"/>
    <path id="FREEZE_DIGITAL_GROUP-11" data-name="FREEZE DIGITAL GROUP" d="M212.857.438q-.126,1.437-.189,2.812-.031,1.344-.031,2.062t.031,1.344q.032.625.063,1.094h-.724a17.192,17.192,0,0,0-1.071-3.906,4.328,4.328,0,0,0-1.669-2.062,5.034,5.034,0,0,0-2.677-.625h-1.008V18.969a6.126,6.126,0,0,0,.22,1.906,1.427,1.427,0,0,0,.976.844,9.864,9.864,0,0,0,2.11.219v.625q-.945-.062-2.457-.062-1.512-.031-3.087-.031-1.638,0-3.087.031-1.417,0-2.3.063v-.625a9.69,9.69,0,0,0,2.079-.219,1.427,1.427,0,0,0,.976-.844,5.407,5.407,0,0,0,.252-1.906V1.156h-1.039a5.137,5.137,0,0,0-2.677.625,4.328,4.328,0,0,0-1.669,2.062A16.338,16.338,0,0,0,194.84,7.75h-.724a8.319,8.319,0,0,0,.063-1.094q.031-.625.031-1.344t-.063-2.062q-.031-1.375-.157-2.812,1.386.031,3.055.062t3.339.031h6.079q1.669,0,3.339-.031T212.857.438Z" transform="translate(160 5833)" fill="#838383"/>
    <path id="FREEZE_DIGITAL_GROUP-12" data-name="FREEZE DIGITAL GROUP" d="M223.113.344l7.654,19.594a4.03,4.03,0,0,0,1.008,1.563,2.076,2.076,0,0,0,1.039.438v.625Q232,22.5,230.83,22.5q-1.134-.031-2.331-.031-1.386,0-2.583.031-1.2,0-1.953.063v-.625a3.165,3.165,0,0,0,2.047-.531q.441-.5-.189-2.094L220.279,4.469l.567-.687-5.04,12.969a11.608,11.608,0,0,0-.724,2.563,2.748,2.748,0,0,0,.158,1.562,1.665,1.665,0,0,0,.945.813,5.88,5.88,0,0,0,1.638.25v.625q-1.008-.062-1.953-.062-.945-.031-1.89-.031-.693,0-1.323.031a8.233,8.233,0,0,0-1.071.063v-.625a2.844,2.844,0,0,0,1.354-.812,6.354,6.354,0,0,0,1.323-2.281l7.213-18.5q.378.031.819.031T223.113.344Zm2.74,13.219v.625h-9.386l.315-.625Z" transform="translate(160 5833)" fill="#838383"/>
    <path id="FREEZE_DIGITAL_GROUP-13" data-name="FREEZE DIGITAL GROUP" d="M242.444.438v.625a5.179,5.179,0,0,0-1.638.25,1.13,1.13,0,0,0-.724.75,5.461,5.461,0,0,0-.189,1.687V19.5a5.693,5.693,0,0,0,.157,1.531,1.033,1.033,0,0,0,.661.656,4.53,4.53,0,0,0,1.354.156h1.8A4.909,4.909,0,0,0,246,21.406a4.608,4.608,0,0,0,1.638-1.281,6.936,6.936,0,0,0,1.134-2.062,13.234,13.234,0,0,0,.63-2.812h.724q-.094,1.031-.094,2.687,0,.688.031,1.969.063,1.281.189,2.656-1.606-.062-3.622-.062-2.016-.031-3.591-.031h-1.921q-1.165,0-2.551.031-1.354,0-2.772.031-1.386,0-2.646.031v-.625a5.721,5.721,0,0,0,1.543-.25,1.046,1.046,0,0,0,.693-.75,5.646,5.646,0,0,0,.189-1.687V3.75a5.461,5.461,0,0,0-.189-1.687,1.046,1.046,0,0,0-.693-.75,4.436,4.436,0,0,0-1.543-.25V.438q.787.031,2.016.062t2.646.031q1.291,0,2.551-.031T242.444.438Z" transform="translate(160 5833)" fill="#838383"/>
    <path id="FREEZE_DIGITAL_GROUP-14" data-name="FREEZE DIGITAL GROUP" d="M270.667,0A8.078,8.078,0,0,1,274.1.625a13.141,13.141,0,0,1,2.425,1.406,1.1,1.1,0,0,0,.63.312q.6,0,.787-1.906h.724q-.063,1.187-.095,2.906t-.031,4.531h-.724a18.783,18.783,0,0,0-.63-3.031,4.862,4.862,0,0,0-1.48-2.281,5.344,5.344,0,0,0-2.079-1.344,6.549,6.549,0,0,0-2.488-.5,5.007,5.007,0,0,0-2.929.875,6.913,6.913,0,0,0-2.079,2.344A12.074,12.074,0,0,0,264.9,7.375a20.085,20.085,0,0,0-.409,4.156q0,5.625,1.638,8.25a5.445,5.445,0,0,0,4.882,2.594,4.628,4.628,0,0,0,1.512-.219,6.5,6.5,0,0,0,1.071-.5,1.743,1.743,0,0,0,.661-.719,2.431,2.431,0,0,0,.158-.937V16.938a6.06,6.06,0,0,0-.252-2.031,1.5,1.5,0,0,0-.945-.937,6.374,6.374,0,0,0-1.984-.281v-.625q.63.031,1.48.063.882,0,1.827.031H276.3q1.228,0,2.236-.031t1.669-.062v.625a2.328,2.328,0,0,0-.976.219,1.01,1.01,0,0,0-.409.75,11.348,11.348,0,0,0-.095,1.719v6.188h-.63a4.26,4.26,0,0,0-.252-1.156q-.221-.625-.661-.625a1.274,1.274,0,0,0-.5.125,7.3,7.3,0,0,0-.976.469,11.92,11.92,0,0,1-2.362,1.188,8.025,8.025,0,0,1-2.709.438,12.559,12.559,0,0,1-5.984-1.312,8.843,8.843,0,0,1-3.685-3.844,13.4,13.4,0,0,1-1.26-6.031,13.09,13.09,0,0,1,1.417-6.25A10.17,10.17,0,0,1,265,1.469,10.941,10.941,0,0,1,270.667,0Z" transform="translate(160 5833)" fill="#838383"/>
    <path id="FREEZE_DIGITAL_GROUP-15" data-name="FREEZE DIGITAL GROUP" d="M282.152.438q.787.031,2.016.062t2.457.031q1.543,0,2.929-.031t1.953-.031a13.4,13.4,0,0,1,4.662.687,5.723,5.723,0,0,1,2.772,1.875,4.659,4.659,0,0,1,.913,2.875,6.043,6.043,0,0,1-.409,2.125A5.161,5.161,0,0,1,298.026,10a7.853,7.853,0,0,1-2.772,1.5,14.658,14.658,0,0,1-4.441.563H287.79v-.625H290.5a5.494,5.494,0,0,0,3.024-.687,3.386,3.386,0,0,0,1.417-1.875,8.623,8.623,0,0,0,.378-2.625,6.405,6.405,0,0,0-.976-3.813,3.851,3.851,0,0,0-3.37-1.375,2.089,2.089,0,0,0-1.7.531,4.12,4.12,0,0,0-.378,2.156v15.5a5.646,5.646,0,0,0,.189,1.688,1.133,1.133,0,0,0,.693.75,6.045,6.045,0,0,0,1.543.25v.625q-.787-.062-2.016-.062-1.228-.031-2.488-.031-1.417,0-2.646.031-1.228,0-2.016.063v-.625a5.721,5.721,0,0,0,1.543-.25,1.046,1.046,0,0,0,.693-.75,5.646,5.646,0,0,0,.189-1.687V3.75a5.461,5.461,0,0,0-.189-1.687,1.046,1.046,0,0,0-.693-.75,4.436,4.436,0,0,0-1.543-.25Zm5.638,11.094q1.48.063,2.457.156,1.008.063,1.7.125.724.062,1.291.156a7.365,7.365,0,0,1,3.843,1.219,4.6,4.6,0,0,1,1.669,2.875l.724,3.219a7.268,7.268,0,0,0,.6,1.844,1.034,1.034,0,0,0,.976.5,1.292,1.292,0,0,0,.756-.219,3.822,3.822,0,0,0,.63-.656l.441.375a5.545,5.545,0,0,1-1.669,1.438,5.023,5.023,0,0,1-2.236.438,4.524,4.524,0,0,1-2.551-.687A4.034,4.034,0,0,1,295,19.625l-.6-3.125a16.77,16.77,0,0,0-.6-2.312,3.741,3.741,0,0,0-.882-1.562,2.274,2.274,0,0,0-1.669-.562h-3.4Z" transform="translate(160 5833)" fill="#838383"/>
    <path id="FREEZE_DIGITAL_GROUP-16" data-name="FREEZE DIGITAL GROUP" d="M314.555,0a11.444,11.444,0,0,1,5.638,1.344,9.183,9.183,0,0,1,3.748,3.875,12.643,12.643,0,0,1,1.354,6.094,12.934,12.934,0,0,1-1.386,6.125,10.007,10.007,0,0,1-3.811,4.094A10.548,10.548,0,0,1,314.523,23a11.445,11.445,0,0,1-5.638-1.344,9.38,9.38,0,0,1-3.78-3.875,13.009,13.009,0,0,1-1.323-6.094,12.934,12.934,0,0,1,1.386-6.125,10.293,10.293,0,0,1,3.811-4.094A10.548,10.548,0,0,1,314.555,0Zm-.126.563a4.413,4.413,0,0,0-3.244,1.406,9.5,9.5,0,0,0-2.11,3.875,19.574,19.574,0,0,0-.756,5.719,17.763,17.763,0,0,0,.85,5.781,9.161,9.161,0,0,0,2.3,3.781,4.641,4.641,0,0,0,3.181,1.313,4.312,4.312,0,0,0,3.213-1.406A9.289,9.289,0,0,0,320,17.156a19.773,19.773,0,0,0,.756-5.719,17.588,17.588,0,0,0-.85-5.781,8.9,8.9,0,0,0-2.3-3.75A4.512,4.512,0,0,0,314.429.563Z" transform="translate(160 5833)" fill="#838383"/>
    <path id="FREEZE_DIGITAL_GROUP-17" data-name="FREEZE DIGITAL GROUP" d="M347.518.438v.625a3.211,3.211,0,0,0-1.543.469,1.806,1.806,0,0,0-.693,1.125,9.364,9.364,0,0,0-.189,2.156v8.656a22.373,22.373,0,0,1-.283,3.75,7.547,7.547,0,0,1-1.008,2.875,5.723,5.723,0,0,1-2.362,2.125,8.3,8.3,0,0,1-3.78.781,13.187,13.187,0,0,1-2.992-.344,6.025,6.025,0,0,1-2.551-1.281,6.416,6.416,0,0,1-1.543-1.844,7.439,7.439,0,0,1-.724-2.469,27.9,27.9,0,0,1-.189-3.5V3.75a5.461,5.461,0,0,0-.189-1.687,1.046,1.046,0,0,0-.693-.75,4.436,4.436,0,0,0-1.543-.25V.438q.787.031,2.016.062t2.646.031q1.291,0,2.551-.031t2.079-.062v.625a5.179,5.179,0,0,0-1.638.25,1.13,1.13,0,0,0-.724.75,5.46,5.46,0,0,0-.189,1.687V15.063a19.579,19.579,0,0,0,.189,2.844,7.453,7.453,0,0,0,.693,2.156,3.376,3.376,0,0,0,1.386,1.375,5.012,5.012,0,0,0,2.3.469,5.478,5.478,0,0,0,3.559-1.031A5.444,5.444,0,0,0,343.864,18a15.909,15.909,0,0,0,.5-4.187V5.063a9.488,9.488,0,0,0-.22-2.344,1.855,1.855,0,0,0-.882-1.187,4.432,4.432,0,0,0-1.89-.469V.438q.6.031,1.543.062.976.031,1.8.031.787,0,1.543-.031Q347.045.469,347.518.438Z" transform="translate(160 5833)" fill="#838383"/>
    <path id="FREEZE_DIGITAL_GROUP-18" data-name="FREEZE DIGITAL GROUP" d="M349.3.438q.787.031,2.016.062t2.457.031q1.543,0,2.929-.031t1.953-.031q4.221,0,6.268,1.719A5.493,5.493,0,0,1,367,6.625,7.633,7.633,0,0,1,366.591,9a6.172,6.172,0,0,1-1.417,2.281,7.435,7.435,0,0,1-2.772,1.688,12.706,12.706,0,0,1-4.441.656h-3.15V13h2.835a4.7,4.7,0,0,0,3.024-.844,3.978,3.978,0,0,0,1.417-2.219,11.167,11.167,0,0,0,.378-2.969,8.1,8.1,0,0,0-.976-4.438,3.743,3.743,0,0,0-3.37-1.469,2.089,2.089,0,0,0-1.7.531,4.12,4.12,0,0,0-.378,2.156V19.125a4.793,4.793,0,0,0,.252,1.781,1.351,1.351,0,0,0,.976.781,9.69,9.69,0,0,0,2.079.219v.656q-.913-.062-2.362-.062-1.449-.031-2.992-.031-1.323,0-2.551.031-1.228,0-2.142.063v-.625a5.721,5.721,0,0,0,1.543-.25,1.046,1.046,0,0,0,.693-.75,5.646,5.646,0,0,0,.189-1.687V3.75a5.461,5.461,0,0,0-.189-1.687,1.046,1.046,0,0,0-.693-.75,4.436,4.436,0,0,0-1.543-.25Z" transform="translate(160 5833)" fill="#838383"/>
    <path id="Jean_Studio" data-name="Jean Studio" d="M0,30.349a6.009,6.009,0,0,0,2.334-1.46,6.107,6.107,0,0,0,1.609-2.635,12.916,12.916,0,0,0,.5-2.571q.158-1.524.158-4.254V4.857L1.766,4.413V2.444H11.861V4.413l-2.65.413V17.3q0,3.4-.095,5.27A16.386,16.386,0,0,1,8.8,25.524a7.928,7.928,0,0,1-2.713,4.254A10.411,10.411,0,0,1,1.041,32Z" transform="translate(623 5829)" fill="#838383"/>
    <path id="Jean_Studio-2" data-name="Jean Studio" d="M22.1,26.381q-4.164,0-6.214-2.444a10.343,10.343,0,0,1-2.019-6.73,11.012,11.012,0,0,1,1.041-4.952,7.6,7.6,0,0,1,3-3.206,8.734,8.734,0,0,1,4.448-1.111,6.621,6.621,0,0,1,4.858,1.683,6.481,6.481,0,0,1,1.766,4.73,14.012,14.012,0,0,1-.252,3.111H18.473a7.9,7.9,0,0,0,1.356,4.508,4.17,4.17,0,0,0,3.5,1.587,8.277,8.277,0,0,0,2.524-.413,6.851,6.851,0,0,0,2.082-.984l.789,1.746a7.879,7.879,0,0,1-2.776,1.714A10.224,10.224,0,0,1,22.1,26.381Zm2.46-10.825q.063-.889.063-1.365,0-4.222-2.807-4.222a2.743,2.743,0,0,0-2.4,1.238,8.551,8.551,0,0,0-.946,4.349Z" transform="translate(623 5829)" fill="#838383"/>
    <path id="Jean_Studio-3" data-name="Jean Studio" d="M31.148,21.079a4.659,4.659,0,0,1,2.871-4.349,16.9,16.9,0,0,1,7.476-1.492v-.73a5.792,5.792,0,0,0-.284-2.032,1.825,1.825,0,0,0-.978-1.079,4.367,4.367,0,0,0-2.05-.381,8.7,8.7,0,0,0-2.776.413,18.808,18.808,0,0,0-2.555,1.016l-.978-2.032a8.456,8.456,0,0,1,1.577-.984,14.04,14.04,0,0,1,2.681-.984A11.471,11.471,0,0,1,39.318,8a9.129,9.129,0,0,1,3.785.635,3.82,3.82,0,0,1,1.987,2.032,9.669,9.669,0,0,1,.6,3.746v9.714h1.7V25.9a17.516,17.516,0,0,1-1.8.317,15.447,15.447,0,0,1-2.05.159,2.367,2.367,0,0,1-1.451-.317,1.782,1.782,0,0,1-.347-1.3V23.9a8.531,8.531,0,0,1-2.208,1.714,6.139,6.139,0,0,1-3.06.762,6.007,6.007,0,0,1-2.681-.6,4.953,4.953,0,0,1-1.924-1.81A5.5,5.5,0,0,1,31.148,21.079Zm7.35,2.667a3.782,3.782,0,0,0,1.514-.381,6.252,6.252,0,0,0,1.483-.984V17.175a7.5,7.5,0,0,0-4.258.984,2.888,2.888,0,0,0-1.388,2.476,3.423,3.423,0,0,0,.694,2.317A2.52,2.52,0,0,0,38.5,23.746Z" transform="translate(623 5829)" fill="#838383"/>
    <path id="Jean_Studio-4" data-name="Jean Studio" d="M51.128,11.4l-2.019-.571V8.635l5.236-.667h.095l.789.635V9.841L55.2,10.6a9.717,9.717,0,0,1,2.871-1.81,8.929,8.929,0,0,1,3.564-.762,5.279,5.279,0,0,1,3,.73,3.855,3.855,0,0,1,1.577,2.222,14.407,14.407,0,0,1,.473,4.127v8.762l1.924.254v1.9H60.465v-1.9l1.7-.254V15.111a11.605,11.605,0,0,0-.221-2.571,2.166,2.166,0,0,0-.82-1.365,2.615,2.615,0,0,0-1.64-.444,6.5,6.5,0,0,0-3.848,1.556V23.841l1.893.286v1.9H49.3v-1.9l1.83-.286Z" transform="translate(623 5829)" fill="#838383"/>
    <path id="Jean_Studio-5" data-name="Jean Studio" d="M86.267,26.381a14.908,14.908,0,0,1-3.06-.286q-1.356-.286-3.028-.762a9.728,9.728,0,0,0-1.483-.349l.284-5.873h2.555l.694,4.1A3.508,3.508,0,0,0,83.681,24a7.83,7.83,0,0,0,2.429.349,4.648,4.648,0,0,0,3.154-.921,3.342,3.342,0,0,0,1.073-2.635,2.967,2.967,0,0,0-.631-1.9,5.749,5.749,0,0,0-1.735-1.46A28.55,28.55,0,0,0,84.942,15.9a15.905,15.905,0,0,1-4.353-2.857,6.092,6.092,0,0,1-1.7-4.54A5.819,5.819,0,0,1,79.8,5.3a6.09,6.09,0,0,1,2.713-2.286,10.431,10.431,0,0,1,4.448-.857,14.645,14.645,0,0,1,2.713.222q1.2.222,2.587.6a12.521,12.521,0,0,0,1.23.286L93.3,8.825H90.778l-.662-3.9a2.824,2.824,0,0,0-1.136-.54A5.925,5.925,0,0,0,87.087,4.1a4.133,4.133,0,0,0-2.871.889A2.972,2.972,0,0,0,83.271,7.3a3.129,3.129,0,0,0,.694,2.032,6.864,6.864,0,0,0,1.735,1.46q1.009.571,3.186,1.651a27.512,27.512,0,0,1,3.028,1.683,7.84,7.84,0,0,1,2.177,2.159A5.218,5.218,0,0,1,95,19.365a6.759,6.759,0,0,1-.883,3.333,6.546,6.546,0,0,1-2.839,2.635A10.575,10.575,0,0,1,86.267,26.381Z" transform="translate(623 5829)" fill="#838383"/>
    <path id="Jean_Studio-6" data-name="Jean Studio" d="M102.624,26.317a4.07,4.07,0,0,1-2.934-.921,3.926,3.926,0,0,1-.946-2.921V10.825h-2.05V9.175q.252-.1.915-.317.662-.254,1.009-.413a3.151,3.151,0,0,0,.915-1.429q.284-.667,1.041-3.3H103.1l.126,4.667h4.826v2.444h-4.795v8.921a22.5,22.5,0,0,0,.095,2.508,1.341,1.341,0,0,0,.41.952,2.289,2.289,0,0,0,1.1.19,8.952,8.952,0,0,0,1.64-.159,7.571,7.571,0,0,0,1.419-.444l.6,1.778a8.752,8.752,0,0,1-2.587,1.206A10.939,10.939,0,0,1,102.624,26.317Z" transform="translate(623 5829)" fill="#838383"/>
    <path id="Jean_Studio-7" data-name="Jean Studio" d="M124.428,26.349a2.162,2.162,0,0,1-1.514-.444,1.745,1.745,0,0,1-.473-1.333v-.857a7.724,7.724,0,0,1-2.4,1.873,6.715,6.715,0,0,1-3.091.794q-3.028,0-4.322-1.556-1.293-1.587-1.293-5.206V10.667l-1.577-.444V8.413L115.122,8h.032l.631.444V19.619a6.6,6.6,0,0,0,.568,3.238,2.282,2.282,0,0,0,2.113.921,5.079,5.079,0,0,0,3.47-1.46V10.667l-2.113-.476V8.413L125.532,8h.063l.757.444V24.063h1.766l-.032,1.81q-.126.032-1.167.254A12.1,12.1,0,0,1,124.428,26.349Z" transform="translate(623 5829)" fill="#838383"/>
    <path id="Jean_Studio-8" data-name="Jean Studio" d="M136.94,26.381a6.71,6.71,0,0,1-3.5-.921,6.541,6.541,0,0,1-2.46-2.921,11.667,11.667,0,0,1-.915-4.921,10.9,10.9,0,0,1,1.073-4.857,8.5,8.5,0,0,1,3.217-3.524,9.5,9.5,0,0,1,5.079-1.3,9.831,9.831,0,0,1,2.271.254V2.825l-3.091-.444V.635L145.11,0h.095l.883.667V24.1h1.7V25.9a18.994,18.994,0,0,1-3.754.476,2.361,2.361,0,0,1-1.451-.349,1.6,1.6,0,0,1-.41-1.3v-.889a6.3,6.3,0,0,1-2.24,1.841A6.7,6.7,0,0,1,136.94,26.381Zm1.64-2.635a3.89,3.89,0,0,0,1.83-.413,4.085,4.085,0,0,0,1.293-1.048V10.73a1.77,1.77,0,0,0-.946-.54,4.941,4.941,0,0,0-1.514-.222,3.779,3.779,0,0,0-3.249,1.778q-1.2,1.746-1.2,5.619a8.921,8.921,0,0,0,1.041,4.825A3.169,3.169,0,0,0,138.581,23.746Z" transform="translate(623 5829)" fill="#838383"/>
    <path id="Jean_Studio-9" data-name="Jean Studio" d="M153.847,5.492a2.421,2.421,0,0,1-1.8-.667,2.329,2.329,0,0,1-.662-1.714,2.782,2.782,0,0,1,.757-2,2.66,2.66,0,0,1,2.019-.794,2.527,2.527,0,0,1,1.924.7,2.289,2.289,0,0,1,.662,1.683,2.756,2.756,0,0,1-.757,2.032,2.846,2.846,0,0,1-2.113.762Zm-1.672,5.9-2.24-.6V8.667l5.773-.7h.063l.883.635v15.27l2.113.254v1.9h-8.8v-1.9l2.208-.286Z" transform="translate(623 5829)" fill="#838383"/>
    <path id="Jean_Studio-10" data-name="Jean Studio" d="M161.029,17.238a10.3,10.3,0,0,1,1.167-5.079,7.865,7.865,0,0,1,3.186-3.143A8.91,8.91,0,0,1,169.7,7.937a7.659,7.659,0,0,1,6.12,2.476A9.665,9.665,0,0,1,178,17.079a10.324,10.324,0,0,1-1.2,5.143,7.668,7.668,0,0,1-3.154,3.143,9.233,9.233,0,0,1-4.322,1.016,7.767,7.767,0,0,1-6.12-2.444A9.787,9.787,0,0,1,161.029,17.238Zm8.548,7.079q3.564,0,3.564-6.921a13.781,13.781,0,0,0-.852-5.492,2.873,2.873,0,0,0-2.776-1.9q-3.659,0-3.659,6.921a13.575,13.575,0,0,0,.883,5.524A2.992,2.992,0,0,0,169.578,24.317Z" transform="translate(623 5829)" fill="#838383"/>
    <path id="Parker_Men_s_Clothing" data-name="Parker Men&apos;s Clothing" d="M0,21.832a3.207,3.207,0,0,0,1.354-.281,1.518,1.518,0,0,0,.661-.936A7.337,7.337,0,0,0,2.2,18.745V6.3q0-.78.031-1.5.063-.717.094-1.123Q1.8,3.712,1.1,3.743q-.693,0-1.1.031V1.715q2.047-.031,4.126-.031t4.158-.031a14.162,14.162,0,0,1,4.945.717,6.409,6.409,0,0,1,3.181,2.214,6.164,6.164,0,0,1,1.1,3.805,6.282,6.282,0,0,1-.535,2.5,6.592,6.592,0,0,1-1.638,2.277,8.379,8.379,0,0,1-2.929,1.684,13.727,13.727,0,0,1-4.347.717H7.087q-.472,0-.913-.031v3.337q0,.873-.031,1.591a10.833,10.833,0,0,1-.094,1.123q.409-.031.913-.031.5-.031,1.008-.031.535-.031.819-.031v2.058H0Zm6.174-8.265.787.062q.378.031.819.031a6.356,6.356,0,0,0,2.961-.624A4.249,4.249,0,0,0,12.6,11.259a6.043,6.043,0,0,0,.63-2.869,6.049,6.049,0,0,0-.441-2.5,3.474,3.474,0,0,0-1.165-1.466,4.147,4.147,0,0,0-1.606-.717,8.478,8.478,0,0,0-1.764-.187,2.79,2.79,0,0,0-1.291.25,1.431,1.431,0,0,0-.63.9,7.331,7.331,0,0,0-.157,1.715Z" transform="translate(897 5829)" fill="#838383"/>
    <path id="Parker_Men_s_Clothing-2" data-name="Parker Men&apos;s Clothing" d="M28.228,23.548q-.094-.468-.126-.78,0-.343-.031-.78a7.041,7.041,0,0,1-2.3,1.559,6.405,6.405,0,0,1-2.488.5,4.5,4.5,0,0,1-3.307-1.154,3.893,3.893,0,0,1-1.134-2.838,3.93,3.93,0,0,1,.819-2.526A6.037,6.037,0,0,1,21.8,15.813a11.587,11.587,0,0,1,2.929-1.029,15.331,15.331,0,0,1,3.181-.405V12.663a5.836,5.836,0,0,0-.22-1.653,2.173,2.173,0,0,0-.724-1.216,2.33,2.33,0,0,0-1.575-.468,4.472,4.472,0,0,0-1.417.312,2.286,2.286,0,0,0-1.1.811,1.265,1.265,0,0,1,.315.624,2.864,2.864,0,0,1,.063.561,2.077,2.077,0,0,1-.441,1.185,1.583,1.583,0,0,1-1.417.561,1.723,1.723,0,0,1-1.323-.593,2.105,2.105,0,0,1-.441-1.341,2.853,2.853,0,0,1,.85-2.058,5.835,5.835,0,0,1,2.362-1.4,9.758,9.758,0,0,1,3.307-.53,5.737,5.737,0,0,1,4.158,1.4q1.449,1.4,1.417,4.491v2q0,.873-.032,1.778v1.965q0,.468-.031,1.185-.031.686-.094,1.372a10.363,10.363,0,0,1,1.134-.062q.6-.031.976-.062v2.027Zm-.346-7.329a9.381,9.381,0,0,0-1.858.312,6.368,6.368,0,0,0-1.638.624,3.483,3.483,0,0,0-1.165,1.029,2.192,2.192,0,0,0-.378,1.372,1.787,1.787,0,0,0,.63,1.435,2.29,2.29,0,0,0,1.386.437,3.516,3.516,0,0,0,1.638-.374,5.316,5.316,0,0,0,1.386-1V16.218Z" transform="translate(897 5829)" fill="#838383"/>
    <path id="Parker_Men_s_Clothing-3" data-name="Parker Men&apos;s Clothing" d="M35.615,21.895a1.8,1.8,0,0,0,1.291-.374,1.979,1.979,0,0,0,.472-1.123,12.515,12.515,0,0,0,.095-1.622V12.912q0-.561.031-1.185t.095-1.279q-.535.031-1.165.062-.63,0-1.039.031v-2H36.56a6.813,6.813,0,0,0,2.11-.281,3.835,3.835,0,0,0,1.2-.624H41.19a10.347,10.347,0,0,1,.094,1.185q.031.811.031,1.622a10.09,10.09,0,0,1,1.512-1.591,5.979,5.979,0,0,1,1.606-1.029,4.263,4.263,0,0,1,1.732-.374,2.878,2.878,0,0,1,1.764.561,2.068,2.068,0,0,1,.787,1.809,2.06,2.06,0,0,1-.22.873,1.745,1.745,0,0,1-.63.78,1.833,1.833,0,0,1-1.134.312,2.211,2.211,0,0,1-1.26-.405,1.7,1.7,0,0,1-.6-1.372,2.266,2.266,0,0,0-1.386.468,6.642,6.642,0,0,0-2.142,2.682l.031,5.926q0,.5-.031,1.216-.031.686-.095,1.341a8.73,8.73,0,0,1,1.071-.062q.567-.031.945-.031v2H35.615Z" transform="translate(897 5829)" fill="#838383"/>
    <path id="Parker_Men_s_Clothing-4" data-name="Parker Men&apos;s Clothing" d="M49.57,23.548V21.895a1.8,1.8,0,0,0,1.291-.374,1.87,1.87,0,0,0,.5-1.123,12.515,12.515,0,0,0,.095-1.622V5.3q0-.53.032-1.154.031-.655.094-1.341-.535.031-1.165.062t-1.071.062V.9A18.1,18.1,0,0,0,51.712.78,6.431,6.431,0,0,0,53.129.405,2.959,2.959,0,0,0,53.885,0h1.449V14.409h1.417l2.8-3.057q.441-.468.756-.811A4.69,4.69,0,0,1,61,9.918l-1.827.031v-2h6.615V9.606a5.062,5.062,0,0,0-1.953.561A6.854,6.854,0,0,0,62.3,11.2q-.661.593-1.165,1.123l-2.142,2.37a3.094,3.094,0,0,1,.945.655A10.941,10.941,0,0,1,61,16.53l2.142,2.776q.189.218.5.655.346.405.756.873a5.324,5.324,0,0,0,.945.749,1.9,1.9,0,0,0,1.008.312v1.653h-3.37a2.5,2.5,0,0,1-1.764-.749,22.293,22.293,0,0,1-1.7-2.027l-1.26-1.747q-.63-.9-1.165-1.622a13.174,13.174,0,0,0-.85-1.154l-.913.031v2.807q0,.5-.032,1.216-.031.686-.094,1.341a8.729,8.729,0,0,1,1.071-.062q.567-.031.976-.031v2Z" transform="translate(897 5829)" fill="#838383"/>
    <path id="Parker_Men_s_Clothing-5" data-name="Parker Men&apos;s Clothing" d="M75.073,24.047a8.044,8.044,0,0,1-4.032-1,7.11,7.11,0,0,1-2.74-2.869,9.381,9.381,0,0,1-.976-4.4A8.82,8.82,0,0,1,68.3,11.7a7.9,7.9,0,0,1,2.74-3.057A7.374,7.374,0,0,1,75.2,7.454a8.706,8.706,0,0,1,2.551.374,5.817,5.817,0,0,1,2.2,1.248A5.979,5.979,0,0,1,81.5,11.384a8.721,8.721,0,0,1,.567,3.493l-10.584.187a12.159,12.159,0,0,0,.441,3.431,4.956,4.956,0,0,0,1.512,2.339,4.22,4.22,0,0,0,2.74.842,5.715,5.715,0,0,0,1.606-.25,7.671,7.671,0,0,0,1.732-.811,6.725,6.725,0,0,0,1.512-1.372l1.2,1.092a8.345,8.345,0,0,1-2.3,2.308,7.8,7.8,0,0,1-2.52,1.092A9.748,9.748,0,0,1,75.073,24.047ZM71.64,13.193h6.552a5.91,5.91,0,0,0-.378-2.09,2.61,2.61,0,0,0-.945-1.31,2.516,2.516,0,0,0-1.543-.468,3.218,3.218,0,0,0-2.488,1.029A5.3,5.3,0,0,0,71.64,13.193Z" transform="translate(897 5829)" fill="#838383"/>
    <path id="Parker_Men_s_Clothing-6" data-name="Parker Men&apos;s Clothing" d="M84.525,21.895a1.8,1.8,0,0,0,1.291-.374,1.979,1.979,0,0,0,.472-1.123,12.515,12.515,0,0,0,.095-1.622V12.912q0-.561.032-1.185t.094-1.279q-.536.031-1.165.062-.63,0-1.039.031v-2H85.47a6.813,6.813,0,0,0,2.11-.281,3.835,3.835,0,0,0,1.2-.624H90.1A10.347,10.347,0,0,1,90.2,8.827q.031.811.031,1.622a10.09,10.09,0,0,1,1.512-1.591,5.979,5.979,0,0,1,1.606-1.029,4.263,4.263,0,0,1,1.732-.374,2.878,2.878,0,0,1,1.764.561,2.068,2.068,0,0,1,.787,1.809,2.06,2.06,0,0,1-.221.873,1.745,1.745,0,0,1-.63.78,1.833,1.833,0,0,1-1.134.312,2.211,2.211,0,0,1-1.26-.405,1.7,1.7,0,0,1-.6-1.372,2.266,2.266,0,0,0-1.386.468,6.642,6.642,0,0,0-2.142,2.682l.031,5.926q0,.5-.031,1.216-.032.686-.094,1.341a8.729,8.729,0,0,1,1.071-.062q.567-.031.945-.031v2H84.525Z" transform="translate(897 5829)" fill="#838383"/>
    <path id="Parker_Men_s_Clothing-7" data-name="Parker Men&apos;s Clothing" d="M119.193,23.86q-1.165-2.776-2.362-5.489-1.165-2.745-2.331-5.52-.315-.717-.725-1.778t-.819-2.339q-.409-1.279-.787-2.62.063,1.279.063,2.433.031,1.123,0,2.183,0,.842-.031,1.84,0,1-.032,2.058t-.063,2.152v2.058q-.031.78-.063,1.528t-.095,1.216q.567-.031,1.26-.062.725-.031,1.134-.031v2.058h-6.8V21.832a3.453,3.453,0,0,0,1.291-.25,1.49,1.49,0,0,0,.693-.842,5.031,5.031,0,0,0,.22-1.684l.346-12.694q.032-.78.032-1.5.032-.717.063-1.185-.5.031-1.2.062-.693,0-1.134.031V1.715h6.268L119.1,13.879q.315.811.661,1.747.378.936.724,1.84t.6,1.591h.032q.409-1,.787-2.058.378-1.092.756-2.027,1.26-3.306,2.551-6.581,1.323-3.306,2.646-6.674h6.394V3.431a3.325,3.325,0,0,0-1.26.218,1.45,1.45,0,0,0-.756.842,4.809,4.809,0,0,0-.221,1.871l.6,12.694a8.182,8.182,0,0,1,0,1.435q-.032.686-.063,1.092a10.73,10.73,0,0,1,1.229-.062q.724-.031,1.134-.031v2.058h-8.19V21.832a3.2,3.2,0,0,0,1.291-.281,1.462,1.462,0,0,0,.725-.873,5.42,5.42,0,0,0,.158-1.9l-.378-7.828q0-.405-.063-1.185t-.094-1.684q-.031-.9-.063-1.715a4.258,4.258,0,0,1-.22.437,3.638,3.638,0,0,0-.158.437L121.461,23.86Z" transform="translate(897 5829)" fill="#838383"/>
    <path id="Parker_Men_s_Clothing-8" data-name="Parker Men&apos;s Clothing" d="M144.441,24.047a8.044,8.044,0,0,1-4.032-1,7.11,7.11,0,0,1-2.74-2.869,9.381,9.381,0,0,1-.977-4.4,8.82,8.82,0,0,1,.977-4.086,7.9,7.9,0,0,1,2.74-3.057,7.374,7.374,0,0,1,4.158-1.185,8.706,8.706,0,0,1,2.551.374,5.817,5.817,0,0,1,2.205,1.248,5.979,5.979,0,0,1,1.543,2.308,8.721,8.721,0,0,1,.567,3.493l-10.584.187a12.159,12.159,0,0,0,.441,3.431,4.956,4.956,0,0,0,1.512,2.339,4.22,4.22,0,0,0,2.74.842,5.715,5.715,0,0,0,1.606-.25,7.671,7.671,0,0,0,1.732-.811,6.725,6.725,0,0,0,1.512-1.372l1.2,1.092a8.345,8.345,0,0,1-2.3,2.308,7.8,7.8,0,0,1-2.52,1.092A9.748,9.748,0,0,1,144.441,24.047Zm-3.433-10.854h6.552a5.91,5.91,0,0,0-.378-2.09,2.61,2.61,0,0,0-.945-1.31,2.516,2.516,0,0,0-1.544-.468,3.218,3.218,0,0,0-2.488,1.029A5.3,5.3,0,0,0,141.007,13.193Z" transform="translate(897 5829)" fill="#838383"/>
    <path id="Parker_Men_s_Clothing-9" data-name="Parker Men&apos;s Clothing" d="M153.893,23.548V21.895a1.8,1.8,0,0,0,1.292-.374,1.979,1.979,0,0,0,.473-1.123,12.515,12.515,0,0,0,.094-1.622V12.912q0-.561.031-1.185t.094-1.279q-.5.031-1.165.062-.63.031-1.039.062V8.546A17.8,17.8,0,0,0,156,8.421a6.431,6.431,0,0,0,1.417-.374,3.036,3.036,0,0,0,.725-.405h1.323a3.239,3.239,0,0,1,.063.561,3.745,3.745,0,0,0,.032.468l.094.655a7.2,7.2,0,0,1,1.449-.936,9.711,9.711,0,0,1,1.7-.686,5.622,5.622,0,0,1,1.575-.25,4.732,4.732,0,0,1,4.063,1.653q1.229,1.653,1.228,5.271v4.71q0,.5-.031,1.216a9.38,9.38,0,0,1-.094,1.341,9.525,9.525,0,0,1,1.1-.062q.567-.031.945-.031v2h-7.654V21.895a1.8,1.8,0,0,0,1.291-.374,1.869,1.869,0,0,0,.5-1.123,12.515,12.515,0,0,0,.094-1.622l-.031-4.429a6.346,6.346,0,0,0-.693-3.337,2.355,2.355,0,0,0-2.2-1.123,4.646,4.646,0,0,0-1.8.437,4.8,4.8,0,0,0-1.48,1.029q.031.374.031.78v.811l-.031,6.144q0,.5-.032,1.216a9.38,9.38,0,0,1-.094,1.341,8.729,8.729,0,0,1,1.071-.062q.6-.031.976-.031v2Z" transform="translate(897 5829)" fill="#838383"/>
    <path id="Parker_Men_s_Clothing-10" data-name="Parker Men&apos;s Clothing" d="M173.469,8.234l-.284-7.018h3.055l-.283,7.018Z" transform="translate(897 5829)" fill="#838383"/>
    <path id="Parker_Men_s_Clothing-11" data-name="Parker Men&apos;s Clothing" d="M185.864,24.047a9.472,9.472,0,0,1-2.709-.374,6.991,6.991,0,0,1-2.016-.9l.094,1h-2.047l-.157-5.365h1.7a3.69,3.69,0,0,0,.756,1.934,4.721,4.721,0,0,0,1.7,1.341,5.839,5.839,0,0,0,2.362.468,3.8,3.8,0,0,0,1.2-.187,2.2,2.2,0,0,0,.976-.593,1.534,1.534,0,0,0,.41-1.092,1.46,1.46,0,0,0-.472-1.123,4.361,4.361,0,0,0-1.26-.811q-.819-.374-1.921-.78-.977-.374-1.953-.78a9.833,9.833,0,0,1-1.8-.967,4.8,4.8,0,0,1-1.323-1.435,3.942,3.942,0,0,1-.5-2.058,4.778,4.778,0,0,1,.315-1.684,4.521,4.521,0,0,1,1.008-1.559,4.861,4.861,0,0,1,1.764-1.185,7.283,7.283,0,0,1,2.678-.437,7.665,7.665,0,0,1,1.921.281,4.92,4.92,0,0,1,1.89.873l-.031-1h2.047V13.1h-1.7a4.847,4.847,0,0,0-.693-1.934,3.881,3.881,0,0,0-1.417-1.372,4.22,4.22,0,0,0-2.11-.5,2.834,2.834,0,0,0-1.7.5,1.581,1.581,0,0,0-.693,1.4,1.67,1.67,0,0,0,.535,1.279,4.342,4.342,0,0,0,1.449.842l1.984.749a15.017,15.017,0,0,1,2.678,1.185,6.121,6.121,0,0,1,1.953,1.653,3.892,3.892,0,0,1,.725,2.4,4.259,4.259,0,0,1-.819,2.682,5.131,5.131,0,0,1-2.111,1.559A7.451,7.451,0,0,1,185.864,24.047Z" transform="translate(897 5829)" fill="#838383"/>
    <path id="Parker_Men_s_Clothing-12" data-name="Parker Men&apos;s Clothing" d="M219.135,8.7a6.759,6.759,0,0,0-1.858-4.117,5.29,5.29,0,0,0-3.843-1.435,5.97,5.97,0,0,0-2.992.749,6.685,6.685,0,0,0-2.2,2,9.457,9.457,0,0,0-1.355,2.932,12.888,12.888,0,0,0-.472,3.556,12.671,12.671,0,0,0,.882,4.9,8.09,8.09,0,0,0,2.52,3.337,6.219,6.219,0,0,0,3.811,1.216,9.028,9.028,0,0,0,7.245-3.774l1.291,1.154a12.053,12.053,0,0,1-3.15,3.057,11.053,11.053,0,0,1-3.276,1.4,12.5,12.5,0,0,1-2.866.374,11.18,11.18,0,0,1-4.41-.842,10.846,10.846,0,0,1-3.4-2.37,11.145,11.145,0,0,1-2.2-3.524,12.4,12.4,0,0,1-.756-4.366,13.977,13.977,0,0,1,.661-4.242A11.993,11.993,0,0,1,204.8,4.928a10.049,10.049,0,0,1,3.465-2.682,10.732,10.732,0,0,1,4.819-1.029,10.439,10.439,0,0,1,2.9.437,10.7,10.7,0,0,1,2.835,1.216l-.126-1.435h2.173V8.7Z" transform="translate(897 5829)" fill="#838383"/>
    <path id="Parker_Men_s_Clothing-13" data-name="Parker Men&apos;s Clothing" d="M223.557,21.895a1.8,1.8,0,0,0,1.291-.374,1.734,1.734,0,0,0,.473-1.123,12.515,12.515,0,0,0,.094-1.622V5.3q0-.53.031-1.154.032-.655.095-1.341-.536.031-1.165.062t-1.071.062V.9A18.1,18.1,0,0,0,225.668.78a6.459,6.459,0,0,0,1.449-.374A2.959,2.959,0,0,0,227.873,0h1.417l.032,19.088q0,.5-.032,1.216-.031.686-.126,1.341a9.524,9.524,0,0,1,1.1-.062q.567-.031.945-.031v2h-7.654Z" transform="translate(897 5829)" fill="#838383"/>
    <path id="Parker_Men_s_Clothing-14" data-name="Parker Men&apos;s Clothing" d="M241.16,24.047a8.551,8.551,0,0,1-4.063-.967,7.55,7.55,0,0,1-2.9-2.776,8.3,8.3,0,0,1-1.04-4.211A9.232,9.232,0,0,1,234.23,11.6,7.937,7.937,0,0,1,237.1,8.546a7.656,7.656,0,0,1,4-1.092,8.157,8.157,0,0,1,4.032,1,7.383,7.383,0,0,1,2.835,2.776,8,8,0,0,1,1.071,4.211A9.527,9.527,0,0,1,248,19.961a7.54,7.54,0,0,1-2.8,3.025A7.672,7.672,0,0,1,241.16,24.047Zm.157-1.9a2.719,2.719,0,0,0,2.174-.873,4.844,4.844,0,0,0,1.039-2.214,12.506,12.506,0,0,0,.315-2.807,14.138,14.138,0,0,0-.221-2.464A8.8,8.8,0,0,0,244,11.54a4.163,4.163,0,0,0-1.165-1.622,2.611,2.611,0,0,0-1.764-.624,2.976,2.976,0,0,0-2.2.9,5.259,5.259,0,0,0-1.2,2.214,11.307,11.307,0,0,0-.346,2.838,13.452,13.452,0,0,0,.41,3.306,6.416,6.416,0,0,0,1.292,2.62A2.834,2.834,0,0,0,241.318,22.144Z" transform="translate(897 5829)" fill="#838383"/>
    <path id="Parker_Men_s_Clothing-15" data-name="Parker Men&apos;s Clothing" d="M257.58,24.047a6.941,6.941,0,0,1-1.732-.218,3.827,3.827,0,0,1-1.512-.811,4.164,4.164,0,0,1-1.071-1.747,9.774,9.774,0,0,1-.41-3.119l.063-8.047-2.236.031V7.953a3.444,3.444,0,0,0,1.827-.624,6.048,6.048,0,0,0,1.543-1.622,5.853,5.853,0,0,0,.882-2.121h1.922l-.032,4.366h4.441v2l-4.441.094-.031,8.016a9.163,9.163,0,0,0,.157,1.747,2.709,2.709,0,0,0,.63,1.248,1.712,1.712,0,0,0,1.26.468,3.113,3.113,0,0,0,1.354-.374,4.36,4.36,0,0,0,1.575-1.5l1.292,1.154a7.606,7.606,0,0,1-1.638,1.84,6.346,6.346,0,0,1-1.607.967,4.968,4.968,0,0,1-1.354.374Q257.864,24.047,257.58,24.047Z" transform="translate(897 5829)" fill="#838383"/>
    <path id="Parker_Men_s_Clothing-16" data-name="Parker Men&apos;s Clothing" d="M273.812,21.895a1.8,1.8,0,0,0,1.291-.374,1.979,1.979,0,0,0,.473-1.123,12.517,12.517,0,0,0,.095-1.622V14.347a6.119,6.119,0,0,0-.725-3.337,2.388,2.388,0,0,0-2.173-1.092,4.471,4.471,0,0,0-1.827.405,4.684,4.684,0,0,0-1.449,1v7.766q0,.5-.031,1.216-.032.686-.126,1.341a9.524,9.524,0,0,1,1.1-.062q.567-.031.945-.031v2h-7.654V21.895a1.8,1.8,0,0,0,1.292-.374A1.734,1.734,0,0,0,265.5,20.4a12.518,12.518,0,0,0,.094-1.622V5.3q0-.53.031-1.154.031-.655.094-1.341-.535.031-1.165.062t-1.039.062V.9A18.1,18.1,0,0,0,265.874.78a6.431,6.431,0,0,0,1.417-.374A2.959,2.959,0,0,0,268.047,0H269.5V9.294a7.2,7.2,0,0,1,1.449-.936,10.944,10.944,0,0,1,1.732-.655,5.95,5.95,0,0,1,1.607-.25,4.643,4.643,0,0,1,4.032,1.653q1.2,1.653,1.228,5.271l.031,4.71q0,.5-.031,1.216-.031.686-.095,1.341a8.459,8.459,0,0,1,1.039-.062q.567-.031.977-.031v2h-7.654Z" transform="translate(897 5829)" fill="#838383"/>
    <path id="Parker_Men_s_Clothing-17" data-name="Parker Men&apos;s Clothing" d="M283.522,21.895a1.8,1.8,0,0,0,1.291-.374,1.979,1.979,0,0,0,.473-1.123,12.517,12.517,0,0,0,.095-1.622V12.943q0-.53.031-1.154.031-.655.095-1.341-.535.031-1.165.062t-1.039.062V8.546a17.8,17.8,0,0,0,2.331-.125,6.459,6.459,0,0,0,1.449-.374,2.959,2.959,0,0,0,.756-.405h1.417V19.088q0,.5-.031,1.216a9.383,9.383,0,0,1-.094,1.341,8.729,8.729,0,0,1,1.071-.062q.6-.031.977-.031v2h-7.654Zm3.622-16.936A2.059,2.059,0,0,1,285.6,4.3a2.358,2.358,0,0,1-.63-1.653A2.358,2.358,0,0,1,285.6,1a2.08,2.08,0,0,1,1.544-.686A1.92,1.92,0,0,1,288.656,1a2.358,2.358,0,0,1,.63,1.653,2.429,2.429,0,0,1-.6,1.653A2,2,0,0,1,287.144,4.959Z" transform="translate(897 5829)" fill="#838383"/>
    <path id="Parker_Men_s_Clothing-18" data-name="Parker Men&apos;s Clothing" d="M293.335,23.548V21.895a1.8,1.8,0,0,0,1.291-.374A1.979,1.979,0,0,0,295.1,20.4a12.512,12.512,0,0,0,.095-1.622V12.912q0-.561.031-1.185t.094-1.279q-.5.031-1.165.062-.63.031-1.039.062V8.546a17.8,17.8,0,0,0,2.331-.125,6.431,6.431,0,0,0,1.418-.374,3.035,3.035,0,0,0,.724-.405h1.323a3.24,3.24,0,0,1,.063.561,3.747,3.747,0,0,0,.031.468l.095.655a7.2,7.2,0,0,1,1.449-.936,9.71,9.71,0,0,1,1.7-.686,5.621,5.621,0,0,1,1.575-.25,4.732,4.732,0,0,1,4.063,1.653q1.229,1.653,1.228,5.271v4.71q0,.5-.031,1.216a9.383,9.383,0,0,1-.095,1.341,9.524,9.524,0,0,1,1.1-.062q.567-.031.945-.031v2h-7.654V21.895a1.8,1.8,0,0,0,1.292-.374,1.869,1.869,0,0,0,.5-1.123,12.518,12.518,0,0,0,.094-1.622l-.031-4.429a6.346,6.346,0,0,0-.693-3.337,2.355,2.355,0,0,0-2.2-1.123,4.646,4.646,0,0,0-1.8.437,4.8,4.8,0,0,0-1.481,1.029q.031.374.032.78v.811l-.032,6.144q0,.5-.031,1.216a9.378,9.378,0,0,1-.095,1.341,8.729,8.729,0,0,1,1.071-.062q.6-.031.977-.031v2Z" transform="translate(897 5829)" fill="#838383"/>
    <path id="Parker_Men_s_Clothing-19" data-name="Parker Men&apos;s Clothing" d="M320.109,32a13.318,13.318,0,0,1-4.41-.593,4.966,4.966,0,0,1-2.331-1.559,3.252,3.252,0,0,1-.693-1.965,3.207,3.207,0,0,1,.346-1.466,4.552,4.552,0,0,1,1.008-1.248,4.863,4.863,0,0,1,1.606-.936A3.259,3.259,0,0,1,313.9,23.2a2.642,2.642,0,0,1-.536-1.622,3.277,3.277,0,0,1,.725-1.9,4.1,4.1,0,0,1,2.362-1.4,5.582,5.582,0,0,1-2.237-1.747,4.661,4.661,0,0,1-.882-2.745,5.561,5.561,0,0,1,.945-3.306A6.731,6.731,0,0,1,316.9,8.265a7.32,7.32,0,0,1,3.339-.811,8.671,8.671,0,0,1,1.953.25,5.917,5.917,0,0,1,1.89.78,6.334,6.334,0,0,1,.882-1.715,4.929,4.929,0,0,1,1.323-1.31,3.172,3.172,0,0,1,1.732-.5,2.019,2.019,0,0,1,1.48.5A1.8,1.8,0,0,1,330,6.8a2.081,2.081,0,0,1-.158.749,1.542,1.542,0,0,1-.535.686,1.71,1.71,0,0,1-1.039.281,1.511,1.511,0,0,1-.945-.343,1.418,1.418,0,0,1-.5-.842,1.693,1.693,0,0,0-.977.78,3.389,3.389,0,0,0-.5,1.248,5.274,5.274,0,0,1,1.323,1.778,4.965,4.965,0,0,1,.473,2.152,5.319,5.319,0,0,1-1.008,3.181,6.689,6.689,0,0,1-2.583,2.152,7.563,7.563,0,0,1-3.4.78q-.473,0-.945-.031a7.711,7.711,0,0,0-1.008-.062,2.7,2.7,0,0,0-1.417.343.9.9,0,0,0-.473.9q.094.655,1.134.873a29.458,29.458,0,0,0,3.213.312,21.214,21.214,0,0,1,4.221.593,5.848,5.848,0,0,1,2.772,1.466,3.912,3.912,0,0,1,.976,2.807,3.718,3.718,0,0,1-.756,2.308,6.2,6.2,0,0,1-2.016,1.684,10.228,10.228,0,0,1-2.741,1.029A12.164,12.164,0,0,1,320.109,32Zm.6-1.84a6.393,6.393,0,0,0,3.654-.873,2.4,2.4,0,0,0,1.26-1.9,1.623,1.623,0,0,0-.6-1.31,4.3,4.3,0,0,0-1.7-.717,15.331,15.331,0,0,0-2.741-.312q-.725-.031-1.607-.094a12.011,12.011,0,0,1-1.606-.156,3.168,3.168,0,0,0-.945,1.092,3,3,0,0,0-.315,1.31,2.319,2.319,0,0,0,1.2,2.152A6.227,6.227,0,0,0,320.708,30.16Zm-.441-12.507a2.362,2.362,0,0,0,1.575-.53,3.342,3.342,0,0,0,.977-1.4,4.943,4.943,0,0,0,.347-1.84,7.847,7.847,0,0,0-.315-2.246,3.938,3.938,0,0,0-.977-1.747A2.221,2.221,0,0,0,320.2,9.2a2.5,2.5,0,0,0-2.2,1.185,4.9,4.9,0,0,0-.756,2.745,7.287,7.287,0,0,0,.346,2.277,4.23,4.23,0,0,0,1.039,1.653A2.44,2.44,0,0,0,320.267,17.653Z" transform="translate(897 5829)" fill="#838383"/>
    <path id="New_World_Bar" data-name="New World Bar" d="M7.088,12.005Q6.26,10.926,5.266,9.476H5.233L5.3,19.93a27.625,27.625,0,0,1-.132,3.035q1.06-.1,2.484-.1v2.6H.1V23.235a4.709,4.709,0,0,0,1.358-.2,1.462,1.462,0,0,0,.729-.809A5.134,5.134,0,0,0,2.451,20.3L2.385,7.385A22.06,22.06,0,0,1,2.517,4.35L0,4.451v-2.6H5.2L15.335,14.872q1.391,1.855,2.319,3.2h.033V7.385q0-2.192.1-3.035l-2.484.1v-2.6h7.552V4.08a3.91,3.91,0,0,0-1.358.236,1.319,1.319,0,0,0-.729.776A5.134,5.134,0,0,0,20.5,7.014V25.8H17.687Z" transform="translate(1323 5831)" fill="#838383"/>
    <path id="New_World_Bar-2" data-name="New World Bar" d="M32.362,26a8.34,8.34,0,0,1-4.273-1.079,7.551,7.551,0,0,1-2.882-3.136,10.3,10.3,0,0,1-1.027-4.721,9.756,9.756,0,0,1,1.027-4.418,8.561,8.561,0,0,1,2.948-3.339A7.632,7.632,0,0,1,32.462,8.06a7.638,7.638,0,0,1,5.333,1.922q2.153,1.922,2.12,6.407l-10.864.2a8.679,8.679,0,0,0,1.093,4.687A3.964,3.964,0,0,0,33.72,23a5.989,5.989,0,0,0,2.484-.607,6.617,6.617,0,0,0,2.385-1.922l1.49,1.416A8.868,8.868,0,0,1,32.362,26Zm2.981-11.769q-.1-3.811-2.716-3.811a2.813,2.813,0,0,0-2.285,1.045,5.615,5.615,0,0,0-1.093,2.765Z" transform="translate(1323 5831)" fill="#838383"/>
    <path id="New_World_Bar-3" data-name="New World Bar" d="M43.362,13.86q-.364-1.045-.53-1.585-.166-.573-.3-1.18l-1.292.067V8.6h7.949v2.158q-1.292.034-1.292,1.416a6.594,6.594,0,0,0,.2,1.214L49.224,17.5a30.414,30.414,0,0,1,.7,3.2h.033q.066-.27.265-1.281t.6-2.361L53.232,8.6h3.61l2.65,9.307q.232.843.795,3.035h.033a18.961,18.961,0,0,1,.762-2.934l1.292-4.283q.232-.809.464-1.45a10.516,10.516,0,0,1,.5-1.214v-.034l-1.888.135V8.6h6.293v2.158q-1.755,0-2.981,3.642L60.982,25.562H57.471l-2.285-7.183q-.53-1.686-1.159-4.148h-.033A52.75,52.75,0,0,1,52.47,20l-1.822,5.564H47.369Z" transform="translate(1323 5831)" fill="#838383"/>
    <path id="New_World_Bar-4" data-name="New World Bar" d="M79.671,7.486a10.26,10.26,0,0,1-.961-3.136l-1.755.1v-2.6h9.771V4.08a3,3,0,0,0-1.623.3,1.17,1.17,0,0,0-.53,1.113,4.107,4.107,0,0,0,.2,1.113L86.759,14.3q.066.27.4,1.585.331,1.281.7,3.2h.033l1.888-6.913,3.08-10.319h2.981l3.776,12.41q.464,1.551,1.192,4.856h.033l1.259-4.654,1.855-7.048a7.45,7.45,0,0,1,1.358-3.069V4.316l-1.722.1-.828.034v-2.6h7.452V4.08a3.063,3.063,0,0,0-2.02.911,6.528,6.528,0,0,0-1.49,2.7l-5.4,17.974H98.352L94.443,13.59a37.419,37.419,0,0,1-1.06-4.148,6.953,6.953,0,0,0-.166-.843h-.033a36,36,0,0,1-.961,4.418L88.448,25.663H85.567Z" transform="translate(1323 5831)" fill="#838383"/>
    <path id="New_World_Bar-5" data-name="New World Bar" d="M117.372,26a8.929,8.929,0,0,1-4.339-1.045,7.511,7.511,0,0,1-3.014-3,9.178,9.178,0,0,1-1.093-4.553,10.21,10.21,0,0,1,1.126-4.856,8.488,8.488,0,0,1,3.014-3.3,7.883,7.883,0,0,1,4.206-1.18,8.671,8.671,0,0,1,4.273,1.045,7.516,7.516,0,0,1,2.981,3.035,9.249,9.249,0,0,1,1.093,4.586,10.681,10.681,0,0,1-1.06,4.89,7.618,7.618,0,0,1-2.915,3.237A7.958,7.958,0,0,1,117.372,26Zm.066-2.394a2.577,2.577,0,0,0,2.55-1.72,11.113,11.113,0,0,0,.729-4.316,13.814,13.814,0,0,0-.828-5.025,2.767,2.767,0,0,0-5.266-.371,10.071,10.071,0,0,0-.828,4.316,12.741,12.741,0,0,0,.894,5.025A2.925,2.925,0,0,0,117.439,23.606Z" transform="translate(1323 5831)" fill="#838383"/>
    <path id="New_World_Bar-6" data-name="New World Bar" d="M128.018,23.268q1.259,0,1.59-.708a5.321,5.321,0,0,0,.364-2.293V14.6q0-1.518.132-2.866l-2.319.1V9.274a15.259,15.259,0,0,0,3.378-.3,4,4,0,0,0,1.722-.708h1.623q.066.506.1,1.315t.033,1.585h.066q2.252-3.1,4.77-3.1a2.971,2.971,0,0,1,2.054.708,2.6,2.6,0,0,1,.828,2.091,2.62,2.62,0,0,1-.563,1.619,1.987,1.987,0,0,1-1.689.742,2.641,2.641,0,0,1-1.49-.438,1.953,1.953,0,0,1-.729-1.518,2.72,2.72,0,0,0-1.921,1.113,5.9,5.9,0,0,0-1.292,2.158v5.5q0,1.619-.132,2.968,1.06-.1,2.153-.1V25.46h-8.678Z" transform="translate(1323 5831)" fill="#838383"/>
    <path id="New_World_Bar-7" data-name="New World Bar" d="M143.111,23.268a1.988,1.988,0,0,0,1.292-.337,1.582,1.582,0,0,0,.53-.978,8.324,8.324,0,0,0,.133-1.686V6.407q0-1.619.132-2.934l-2.319.1V1.012a15.259,15.259,0,0,0,3.378-.3A4,4,0,0,0,147.98,0h1.789V20.031q0,1.619-.132,2.968,1.093-.1,2.153-.1V25.46h-8.678Z" transform="translate(1323 5831)" fill="#838383"/>
    <path id="New_World_Bar-8" data-name="New World Bar" d="M160.352,26a6.055,6.055,0,0,1-3.511-1.045,7.027,7.027,0,0,1-2.352-2.968,11.511,11.511,0,0,1-.828-4.519,10.944,10.944,0,0,1,1.027-4.822,8.067,8.067,0,0,1,2.882-3.372,7.787,7.787,0,0,1,4.306-1.214,8.7,8.7,0,0,1,2.948.607V6.441q0-1.619.132-2.968-1.093.1-2.352.1V1.012a15.259,15.259,0,0,0,3.378-.3A4,4,0,0,0,167.7,0h1.789V20.031q0,1.619-.132,2.968,1.093-.1,2.153-.1V25.46h-6.293l-.166-1.551h-.033A6.174,6.174,0,0,1,160.352,26Zm1.722-3.069a2.969,2.969,0,0,0,1.557-.438,3.55,3.55,0,0,0,1.192-1.18V11.2a2.961,2.961,0,0,0-1.027-.438,4.515,4.515,0,0,0-1.325-.2,3.232,3.232,0,0,0-3.047,1.855,10.292,10.292,0,0,0-.894,4.553,9.617,9.617,0,0,0,.861,4.215A2.867,2.867,0,0,0,162.074,22.931Z" transform="translate(1323 5831)" fill="#838383"/>
    <path id="New_World_Bar-9" data-name="New World Bar" d="M182.689,23.235a4.709,4.709,0,0,0,1.358-.2,1.462,1.462,0,0,0,.729-.809,5.135,5.135,0,0,0,.265-1.922V7.385a27.627,27.627,0,0,1,.132-3.035l-2.484.1v-2.6l9.175-.067a11.058,11.058,0,0,1,6.227,1.45,4.88,4.88,0,0,1,2.252,4.35,4.6,4.6,0,0,1-1.226,3.069,6.943,6.943,0,0,1-3.544,2.023v.034a8.379,8.379,0,0,1,4.8,2.158A5.356,5.356,0,0,1,202,18.75a5.918,5.918,0,0,1-2.252,4.957,9.074,9.074,0,0,1-5.8,1.754H182.689Zm8.877-11.061a3.286,3.286,0,0,0,2.815-1.248,5.492,5.492,0,0,0,.894-3.271,3.306,3.306,0,0,0-.994-2.664,3.611,3.611,0,0,0-2.418-.843,3.139,3.139,0,0,0-1.126.169,1.389,1.389,0,0,0-.662.809,5.536,5.536,0,0,0-.232,1.855v5.227Zm-1.855,10.892q2.186,0,3.213-.034a3.865,3.865,0,0,0,2.915-1.248,4.817,4.817,0,0,0,.961-3.136,3.674,3.674,0,0,0-1.226-3.1,4.731,4.731,0,0,0-3.047-.978q-1.822,0-2.683.034v5.5A26.836,26.836,0,0,1,189.711,23.066Z" transform="translate(1323 5831)" fill="#838383"/>
    <path id="New_World_Bar-10" data-name="New World Bar" d="M208.429,26a4.431,4.431,0,0,1-3.312-1.248,4.567,4.567,0,0,1-1.192-3.237,4.855,4.855,0,0,1,2.716-4.485,14.257,14.257,0,0,1,6.525-1.72V13.556q0-3.069-2.252-3.069a3.2,3.2,0,0,0-2.385.944,1.927,1.927,0,0,1,.4,1.281,2.138,2.138,0,0,1-.563,1.45,1.944,1.944,0,0,1-1.59.641,1.964,1.964,0,0,1-1.557-.641,2.492,2.492,0,0,1-.563-1.652,3.343,3.343,0,0,1,.927-2.327A5.91,5.91,0,0,1,208.1,8.633a10.572,10.572,0,0,1,3.544-.573q6.128,0,6.128,6.441l-.033,5.53q0,1.619-.132,2.968,1.093-.1,2.153-.1V25.46H213.5q-.066-.438-.132-1.551h-.033A6.563,6.563,0,0,1,208.429,26Zm2.087-3.3a3.47,3.47,0,0,0,2.617-1.214V17.7a7.507,7.507,0,0,0-3.246,1.012,2.491,2.491,0,0,0-1.259,2.192,1.65,1.65,0,0,0,.53,1.349A2.144,2.144,0,0,0,210.516,22.7Z" transform="translate(1323 5831)" fill="#838383"/>
    <path id="New_World_Bar-11" data-name="New World Bar" d="M221.658,23.268q1.259,0,1.59-.708a5.321,5.321,0,0,0,.364-2.293V14.6q0-1.518.133-2.866l-2.319.1V9.274a15.259,15.259,0,0,0,3.378-.3,4,4,0,0,0,1.722-.708h1.623q.066.506.1,1.315t.033,1.585h.066q2.252-3.1,4.77-3.1a2.971,2.971,0,0,1,2.054.708A2.6,2.6,0,0,1,236,10.859a2.62,2.62,0,0,1-.563,1.619,1.987,1.987,0,0,1-1.689.742,2.641,2.641,0,0,1-1.49-.438,1.953,1.953,0,0,1-.729-1.518,2.72,2.72,0,0,0-1.921,1.113,5.9,5.9,0,0,0-1.292,2.158v5.5q0,1.619-.132,2.968,1.06-.1,2.153-.1V25.46h-8.678Z" transform="translate(1323 5831)" fill="#838383"/>
    <path id="Hubert_Enterprise" data-name="Hubert Enterprise" d="M22.358,2.609V27.971H17.685V17.1H4.673v10.87H0V2.609H4.673V13.08H17.685V2.609Z" transform="translate(160 5918)" fill="#838383"/>
    <path id="Hubert_Enterprise-2" data-name="Hubert Enterprise" d="M47.254,8.623V27.971H42.976V25.507a7.327,7.327,0,0,1-2.7,2.029,8.81,8.81,0,0,1-3.487.688,8.41,8.41,0,0,1-6.075-2.138q-2.193-2.174-2.193-6.413V8.623h4.493V19.058a5.768,5.768,0,0,0,1.15,3.913,4.354,4.354,0,0,0,3.343,1.268,4.988,4.988,0,0,0,3.81-1.486,6.09,6.09,0,0,0,1.438-4.348V8.623Z" transform="translate(160 5918)" fill="#838383"/>
    <path id="Hubert_Enterprise-3" data-name="Hubert Enterprise" d="M63.777,8.406a10.024,10.024,0,0,1,5,1.232,8.815,8.815,0,0,1,3.487,3.478A10.423,10.423,0,0,1,73.518,18.3a10.629,10.629,0,0,1-1.258,5.217,8.815,8.815,0,0,1-3.487,3.478,10.024,10.024,0,0,1-5,1.232,9.355,9.355,0,0,1-3.631-.688,6.984,6.984,0,0,1-2.732-2.065v2.5H53.137V1.087H57.63v9.891a7.584,7.584,0,0,1,2.7-1.92A8.965,8.965,0,0,1,63.777,8.406Zm-.5,15.942a5.352,5.352,0,0,0,4.062-1.667A6.028,6.028,0,0,0,68.953,18.3a6.028,6.028,0,0,0-1.618-4.384,5.352,5.352,0,0,0-4.062-1.667,5.636,5.636,0,0,0-2.912.761,5.223,5.223,0,0,0-2.049,2.1,6.526,6.526,0,0,0-.755,3.188,6.526,6.526,0,0,0,.755,3.188,5.477,5.477,0,0,0,2.049,2.138A5.856,5.856,0,0,0,63.274,24.348Z" transform="translate(160 5918)" fill="#838383"/>
    <path id="Hubert_Enterprise-4" data-name="Hubert Enterprise" d="M95.825,18.406q0,.471-.072,1.341H80.691a5.365,5.365,0,0,0,2.049,3.406,6.887,6.887,0,0,0,4.17,1.232,6.968,6.968,0,0,0,5.212-2.1l2.408,2.79a8.117,8.117,0,0,1-3.271,2.355,12.868,12.868,0,0,1-10.029-.471,9.25,9.25,0,0,1-3.738-3.514A10.247,10.247,0,0,1,76.2,18.3a10.2,10.2,0,0,1,1.258-5.072,9.177,9.177,0,0,1,3.559-3.551,10.266,10.266,0,0,1,5.1-1.268,9.8,9.8,0,0,1,5,1.268,8.522,8.522,0,0,1,3.451,3.514A10.5,10.5,0,0,1,95.825,18.406Zm-9.705-6.377a5.329,5.329,0,0,0-5.464,4.71H91.547a5.262,5.262,0,0,0-5.428-4.71Z" transform="translate(160 5918)" fill="#838383"/>
    <path id="Hubert_Enterprise-5" data-name="Hubert Enterprise" d="M104.418,11.449q1.941-3.043,6.83-3.043v4.312a5.661,5.661,0,0,0-1.042-.109,5.369,5.369,0,0,0-4.1,1.558,6.105,6.105,0,0,0-1.474,4.42v9.384h-4.493V8.623h4.278Z" transform="translate(160 5918)" fill="#838383"/>
    <path id="Hubert_Enterprise-6" data-name="Hubert Enterprise" d="M127.3,26.92a5.264,5.264,0,0,1-1.941.978,8.408,8.408,0,0,1-2.372.326,6.751,6.751,0,0,1-4.889-1.667,6.444,6.444,0,0,1-1.725-4.855V12.391H113.21V8.768h3.163V4.348h4.493v4.42h5.14v3.623h-5.14v9.2a3.147,3.147,0,0,0,.683,2.174,2.587,2.587,0,0,0,1.977.725,3.927,3.927,0,0,0,2.516-.8Z" transform="translate(160 5918)" fill="#838383"/>
    <path id="Hubert_Enterprise-7" data-name="Hubert Enterprise" d="M160.234,24.022v3.949H141.362V2.609h18.368V6.558h-13.7v6.594h12.15v3.877h-12.15v6.993Z" transform="translate(160 5918)" fill="#838383"/>
    <path id="Hubert_Enterprise-8" data-name="Hubert Enterprise" d="M175.9,8.406a7.985,7.985,0,0,1,5.823,2.138q2.193,2.138,2.193,6.341V27.971h-4.493V17.464a5.391,5.391,0,0,0-1.186-3.8,4.335,4.335,0,0,0-3.379-1.3,5.132,5.132,0,0,0-3.918,1.522,5.957,5.957,0,0,0-1.438,4.312v9.783h-4.493V8.623h4.278v2.5a7.027,7.027,0,0,1,2.8-2.029A10.02,10.02,0,0,1,175.9,8.406Z" transform="translate(160 5918)" fill="#838383"/>
    <path id="Hubert_Enterprise-9" data-name="Hubert Enterprise" d="M201.158,26.92a5.264,5.264,0,0,1-1.941.978,8.408,8.408,0,0,1-2.372.326,6.751,6.751,0,0,1-4.889-1.667,6.444,6.444,0,0,1-1.725-4.855V12.391h-3.163V8.768h3.163V4.348h4.493v4.42h5.14v3.623h-5.14v9.2a3.147,3.147,0,0,0,.683,2.174,2.587,2.587,0,0,0,1.977.725,3.927,3.927,0,0,0,2.516-.8Z" transform="translate(160 5918)" fill="#838383"/>
    <path id="Hubert_Enterprise-10" data-name="Hubert Enterprise" d="M222.268,18.406q0,.471-.072,1.341H207.134a5.365,5.365,0,0,0,2.049,3.406,6.887,6.887,0,0,0,4.17,1.232,6.968,6.968,0,0,0,5.212-2.1l2.408,2.79a8.117,8.117,0,0,1-3.271,2.355,12.868,12.868,0,0,1-10.029-.471,9.25,9.25,0,0,1-3.738-3.514,10.247,10.247,0,0,1-1.294-5.145,10.2,10.2,0,0,1,1.258-5.072,9.177,9.177,0,0,1,3.559-3.551,10.266,10.266,0,0,1,5.1-1.268,9.8,9.8,0,0,1,5,1.268,8.522,8.522,0,0,1,3.451,3.514A10.5,10.5,0,0,1,222.268,18.406Zm-9.705-6.377a5.329,5.329,0,0,0-5.464,4.71H217.99a5.262,5.262,0,0,0-5.428-4.71Z" transform="translate(160 5918)" fill="#838383"/>
    <path id="Hubert_Enterprise-11" data-name="Hubert Enterprise" d="M230.861,11.449q1.941-3.043,6.83-3.043v4.312a5.661,5.661,0,0,0-1.042-.109,5.369,5.369,0,0,0-4.1,1.558,6.105,6.105,0,0,0-1.474,4.42v9.384h-4.493V8.623h4.278Z" transform="translate(160 5918)" fill="#838383"/>
    <path id="Hubert_Enterprise-12" data-name="Hubert Enterprise" d="M252.143,8.406a10.024,10.024,0,0,1,5,1.232,8.816,8.816,0,0,1,3.487,3.478,10.423,10.423,0,0,1,1.258,5.181,10.629,10.629,0,0,1-1.258,5.217,8.816,8.816,0,0,1-3.487,3.478,10.024,10.024,0,0,1-5,1.232A7.721,7.721,0,0,1,246,25.616V35H241.5V8.623h4.278v2.536a6.984,6.984,0,0,1,2.732-2.065A9.355,9.355,0,0,1,252.143,8.406Zm-.5,15.942a5.352,5.352,0,0,0,4.062-1.667,6.028,6.028,0,0,0,1.618-4.384,6.028,6.028,0,0,0-1.618-4.384,5.352,5.352,0,0,0-4.062-1.667,5.636,5.636,0,0,0-2.912.761,5.223,5.223,0,0,0-2.049,2.1,6.526,6.526,0,0,0-.755,3.188,6.526,6.526,0,0,0,.755,3.188,5.477,5.477,0,0,0,2.049,2.138A5.856,5.856,0,0,0,251.64,24.348Z" transform="translate(160 5918)" fill="#838383"/>
    <path id="Hubert_Enterprise-13" data-name="Hubert Enterprise" d="M270.423,11.449q1.941-3.043,6.83-3.043v4.312a5.66,5.66,0,0,0-1.042-.109,5.369,5.369,0,0,0-4.1,1.558,6.1,6.1,0,0,0-1.474,4.42v9.384h-4.493V8.623h4.278Z" transform="translate(160 5918)" fill="#838383"/>
    <path id="Hubert_Enterprise-14" data-name="Hubert Enterprise" d="M281.065,8.623h4.493V27.971h-4.493Zm2.265-3.188a2.912,2.912,0,0,1-2.049-.761,2.612,2.612,0,0,1-.827-1.957A2.5,2.5,0,0,1,281.28.8a2.837,2.837,0,0,1,2.049-.8,2.912,2.912,0,0,1,2.049.761,2.348,2.348,0,0,1,.827,1.848,2.776,2.776,0,0,1-2.876,2.826Z" transform="translate(160 5918)" fill="#838383"/>
    <path id="Hubert_Enterprise-15" data-name="Hubert Enterprise" d="M297.387,28.225a17.058,17.058,0,0,1-4.565-.616,11.441,11.441,0,0,1-3.559-1.558l1.725-3.442a11.459,11.459,0,0,0,3.091,1.413,13.443,13.443,0,0,0,3.595.507q4.026,0,4.026-2.138a1.429,1.429,0,0,0-1.042-1.413,17.071,17.071,0,0,0-3.271-.761,27.179,27.179,0,0,1-3.882-.833,6.14,6.14,0,0,1-2.588-1.63,4.744,4.744,0,0,1-1.078-3.3,5.133,5.133,0,0,1,2.265-4.384,10.327,10.327,0,0,1,6.183-1.667,17.009,17.009,0,0,1,3.954.471,10.714,10.714,0,0,1,3.235,1.2l-1.725,3.442a10.578,10.578,0,0,0-5.5-1.449,6.011,6.011,0,0,0-3.02.616,1.748,1.748,0,0,0-1.006,1.558A1.6,1.6,0,0,0,295.3,15.8a19.049,19.049,0,0,0,3.415.833,26.035,26.035,0,0,1,3.774.833,5.773,5.773,0,0,1,2.516,1.594,4.42,4.42,0,0,1,1.078,3.188,5.056,5.056,0,0,1-2.336,4.348A10.951,10.951,0,0,1,297.387,28.225Z" transform="translate(160 5918)" fill="#838383"/>
    <path id="Hubert_Enterprise-16" data-name="Hubert Enterprise" d="M328,18.406q0,.471-.072,1.341H312.867a5.365,5.365,0,0,0,2.049,3.406,6.887,6.887,0,0,0,4.17,1.232,6.968,6.968,0,0,0,5.212-2.1l2.408,2.79a8.117,8.117,0,0,1-3.271,2.355,12.868,12.868,0,0,1-10.029-.471,9.25,9.25,0,0,1-3.738-3.514,10.247,10.247,0,0,1-1.294-5.145,10.2,10.2,0,0,1,1.258-5.072,9.177,9.177,0,0,1,3.559-3.551,10.266,10.266,0,0,1,5.1-1.268,9.8,9.8,0,0,1,5,1.268,8.522,8.522,0,0,1,3.451,3.514A10.5,10.5,0,0,1,328,18.406Zm-9.705-6.377a5.329,5.329,0,0,0-5.464,4.71h10.892a5.262,5.262,0,0,0-5.428-4.71Z" transform="translate(160 5918)" fill="#838383"/>
    <path id="ONE_BEAT" data-name="ONE BEAT" d="M17.1,35a18.069,18.069,0,0,1-8.979-2.166,15.6,15.6,0,0,1-5.97-6.162A18.934,18.934,0,0,1,0,17.476a19.106,19.106,0,0,1,2.1-9.2A15.178,15.178,0,0,1,8.119,2.166,18.069,18.069,0,0,1,17.1,0a17.8,17.8,0,0,1,8.931,2.166,15.178,15.178,0,0,1,6.018,6.114,18.76,18.76,0,0,1,2.149,9.2,18.934,18.934,0,0,1-2.149,9.2,15.5,15.5,0,0,1-6.018,6.162A17.8,17.8,0,0,1,17.1,35Zm0-7.414a7.024,7.024,0,0,0,5.827-2.648q2.149-2.7,2.149-7.462t-2.1-7.414A7.076,7.076,0,0,0,17.1,7.414a7.076,7.076,0,0,0-5.874,2.648q-2.1,2.648-2.1,7.414t2.1,7.462A7.076,7.076,0,0,0,17.1,27.586Z" transform="translate(896 5918)" fill="#838383"/>
    <path id="ONE_BEAT-2" data-name="ONE BEAT" d="M39.385,34.47V.53h6.448l15.474,19.45V.53h8.119V34.47h-6.4L47.551,15.021V34.47Z" transform="translate(896 5918)" fill="#838383"/>
    <path id="ONE_BEAT-3" data-name="ONE BEAT" d="M75.577,34.47V.53H99.362V7.366H83.983v6.451h14.28v6.836H83.983v6.981H99.362V34.47Z" transform="translate(896 5918)" fill="#838383"/>
    <path id="ONE_BEAT-4" data-name="ONE BEAT" d="M118.58,34.47V.53h16.238q5.445,0,8.406,2.407a7.654,7.654,0,0,1,3.009,6.355,8.041,8.041,0,0,1-1.337,4.622,7.712,7.712,0,0,1-3.63,2.937,7.858,7.858,0,0,1,5.874,7.992,8.632,8.632,0,0,1-3.2,7.077q-3.152,2.552-8.644,2.552Zm8.406-20.461h6.257a5.634,5.634,0,0,0,3.486-.867,3.106,3.106,0,0,0,1.146-2.648,2.975,2.975,0,0,0-1.146-2.6,5.634,5.634,0,0,0-3.486-.867h-6.257Zm0,13.961H134.1a5.5,5.5,0,0,0,3.534-.915,3.5,3.5,0,0,0,1.146-2.84,3.357,3.357,0,0,0-1.146-2.792,5.5,5.5,0,0,0-3.534-.915h-7.116Z" transform="translate(896 5918)" fill="#838383"/>
    <path id="ONE_BEAT-5" data-name="ONE BEAT" d="M152.114,34.47V.53H175.9V7.366H160.52v6.451H174.8v6.836H160.52v6.981H175.9V34.47Z" transform="translate(896 5918)" fill="#838383"/>
    <path id="ONE_BEAT-6" data-name="ONE BEAT" d="M176.878,34.47,192.639.53h6.925L215.325,34.47h-8.788l-2.913-6.884H188.579l-2.913,6.884Zm19.152-24.7L191.445,20.8h9.265L196.125,9.773Z" transform="translate(896 5918)" fill="#838383"/>
    <path id="ONE_BEAT-7" data-name="ONE BEAT" d="M221.514,34.47V7.751h-10.7V.53H241V7.751H230.3V34.47Z" transform="translate(896 5918)" fill="#838383"/>
    <path id="TECH_4.0" data-name="TECH 4.0" d="M5.457,5.194H0V.472H16.133V5.194H10.676V33.528H5.457Z" transform="translate(621 5917)" fill="#838383"/>
    <path id="TECH_4.0-2" data-name="TECH 4.0" d="M18.66.472H32.9V5.194H23.88v8.736h7.165v4.722H23.88V28.806H32.9v4.722H18.66Z" transform="translate(621 5917)" fill="#838383"/>
    <path id="TECH_4.0-3" data-name="TECH 4.0" d="M43.253,34a7.491,7.491,0,0,1-5.742-2.125,8.561,8.561,0,0,1-1.945-6V8.122a8.561,8.561,0,0,1,1.945-6A7.491,7.491,0,0,1,43.253,0a7.335,7.335,0,0,1,5.694,2.125,8.432,8.432,0,0,1,1.993,6v3.494H46.006V7.792q0-3.069-2.61-3.069t-2.61,3.069V26.256q0,3.022,2.61,3.022t2.61-3.022V21.2H50.94v4.675a8.432,8.432,0,0,1-1.993,6A7.335,7.335,0,0,1,43.253,34Z" transform="translate(621 5917)" fill="#838383"/>
    <path id="TECH_4.0-4" data-name="TECH 4.0" d="M54.063.472h5.22V13.931h5.6V.472H70.1V33.528h-5.22V18.653h-5.6V33.528h-5.22Z" transform="translate(621 5917)" fill="#838383"/>
    <path id="TECH_4.0-5" data-name="TECH 4.0" d="M90.32,27.531H80.355V22.808L89.845.472h5.694V22.808h2.467v4.722H95.539v6H90.32Zm0-4.722V9.917h-.095L85.1,22.808Z" transform="translate(621 5917)" fill="#838383"/>
    <path id="TECH_4.0-6" data-name="TECH 4.0" d="M100.588,28.522h5.03v5.006h-5.03Z" transform="translate(621 5917)" fill="#838383"/>
    <path id="TECH_4.0-7" data-name="TECH 4.0" d="M117.076,34a7.683,7.683,0,0,1-5.884-2.172,8.623,8.623,0,0,1-2.04-6.139V8.311a8.623,8.623,0,0,1,2.04-6.139,9.055,9.055,0,0,1,11.768,0A8.623,8.623,0,0,1,125,8.311V25.689a8.623,8.623,0,0,1-2.04,6.139A7.683,7.683,0,0,1,117.076,34Zm0-4.722q2.7,0,2.7-3.258V7.981q0-3.258-2.7-3.258t-2.7,3.258V26.019Q114.371,29.278,117.076,29.278Z" transform="translate(621 5917)" fill="#838383"/>
  </g>
</svg>
