<svg xmlns="http://www.w3.org/2000/svg" width="38" height="42.575" viewBox="0 0 38 42.575">
  <g id="Ethereum" transform="translate(-5 -2.598)">
    <path id="Vector" d="M12.488,0,24.975,20.5,12.488,27.857,0,20.5Z" transform="translate(10.997 3.635)" fill="#fcfcfc" stroke="#fcfcfc" stroke-linejoin="round" stroke-width="2.075"/>
    <path id="Vector-2" data-name="Vector" d="M13.325,7.8,0,0,13.325,16.887,26.653,0Z" transform="translate(10.159 27.248)" fill="#fcfcfc" stroke="#fcfcfc" stroke-linejoin="round" stroke-width="2.075"/>
    <path id="Vector-3" data-name="Vector" d="M12.488,0,0,20.5l12.488-4.157Z" transform="translate(10.997 3.635)" fill="#1c83e5" stroke="#fcfcfc" stroke-linejoin="round" stroke-width="2.075"/>
    <path id="Vector-4" data-name="Vector" d="M0,16.347,12.487,20.5,0,0V16.347Z" transform="translate(23.484 3.635)" fill="#1c83e5" stroke="#fcfcfc" stroke-linejoin="round" stroke-width="2.075"/>
    <path id="Vector-5" data-name="Vector" d="M0,0V11.694" transform="translate(23.484 20.485)" fill="none" stroke="#1c83e5" stroke-linecap="round" stroke-linejoin="round" stroke-width="1.5"/>
    <path id="Vector-6" data-name="Vector" d="M0,0V10.021" transform="translate(23.484 34.343)" fill="none" stroke="#1c83e5" stroke-linecap="square" stroke-linejoin="round" stroke-width="1.5"/>
    <path id="Vector-7" data-name="Vector" d="M0,0V1.118" transform="translate(8.579 35.04)" fill="none" stroke="#fcfcfc" stroke-linecap="round" stroke-linejoin="round" stroke-width="2"/>
    <path id="Vector-8" data-name="Vector" d="M0,0H1.147" transform="translate(6 37.583)" fill="none" stroke="#fcfcfc" stroke-linecap="round" stroke-linejoin="round" stroke-width="2"/>
    <path id="Vector-9" data-name="Vector" d="M0,1.119V0" transform="translate(8.608 38.979)" fill="none" stroke="#fcfcfc" stroke-linecap="round" stroke-linejoin="round" stroke-width="2"/>
    <path id="Vector-10" data-name="Vector" d="M1.148,0H0" transform="translate(10.04 37.555)" fill="none" stroke="#fcfcfc" stroke-linecap="round" stroke-linejoin="round" stroke-width="2"/>
    <path id="Vector-11" data-name="Vector" d="M0,0V1.118" transform="translate(9.238 8.424)" fill="none" stroke="#fcfcfc" stroke-linecap="round" stroke-linejoin="round" stroke-width="2"/>
    <path id="Vector-12" data-name="Vector" d="M0,0H1.147" transform="translate(6.659 10.967)" fill="none" stroke="#fcfcfc" stroke-linecap="round" stroke-linejoin="round" stroke-width="2"/>
    <path id="Vector-13" data-name="Vector" d="M0,1.118V0" transform="translate(9.267 12.364)" fill="none" stroke="#fcfcfc" stroke-linecap="round" stroke-linejoin="round" stroke-width="2"/>
    <path id="Vector-14" data-name="Vector" d="M1.147,0H0" transform="translate(10.7 10.939)" fill="none" stroke="#fcfcfc" stroke-linecap="round" stroke-linejoin="round" stroke-width="2"/>
    <g id="Group">
      <path id="Vector-15" data-name="Vector" d="M0,0V1.118" transform="translate(39.391 14.043)" fill="none" stroke="#fcfcfc" stroke-linecap="round" stroke-linejoin="round" stroke-width="2"/>
      <path id="Vector-16" data-name="Vector" d="M0,0H1.147" transform="translate(36.812 16.586)" fill="none" stroke="#fcfcfc" stroke-linecap="round" stroke-linejoin="round" stroke-width="2"/>
      <path id="Vector-17" data-name="Vector" d="M0,1.118V0" transform="translate(39.421 17.982)" fill="none" stroke="#fcfcfc" stroke-linecap="round" stroke-linejoin="round" stroke-width="2"/>
      <path id="Vector-18" data-name="Vector" d="M1.147,0H0" transform="translate(40.853 16.558)" fill="none" stroke="#fcfcfc" stroke-linecap="round" stroke-linejoin="round" stroke-width="2"/>
    </g>
  </g>
</svg>
